<svg width="124" height="121" viewBox="0 0 124 121" fill="none" xmlns="http://www.w3.org/2000/svg">
<g clip-path="url(#clip0_54_26)">
<path d="M102.042 0H21.9583C9.83108 0 0 9.83921 0 21.9765V99.0235C0 111.161 9.83108 121 21.9583 121H102.042C114.169 121 124 111.161 124 99.0235V21.9765C124 9.83921 114.169 0 102.042 0Z" fill="#6244C5"/>
<path d="M60.0884 72.6146H40.8731L36.9636 84.7695C36.9103 84.9911 36.7814 85.1872 36.5992 85.324C36.417 85.4608 36.1928 85.5296 35.9653 85.5188H26.2329C25.6779 85.5188 25.4838 85.2135 25.6506 84.603L42.2871 36.6497C42.4536 36.1503 42.6201 35.5814 42.7864 34.943C43.004 33.8323 43.1154 32.7033 43.1191 31.5714C43.1079 31.4923 43.1151 31.4115 43.1404 31.3357C43.1657 31.2598 43.2082 31.1909 43.2647 31.1343C43.3212 31.0778 43.3901 31.0352 43.4659 31.0099C43.5417 30.9846 43.6223 30.9773 43.7014 30.9886H56.9274C57.3149 30.9886 57.5367 31.1273 57.5929 31.4049L76.4757 84.6862C76.6419 85.2416 76.4755 85.5192 75.9764 85.5187H65.1625C64.9768 85.5393 64.7899 85.4915 64.6369 85.3843C64.4838 85.2771 64.375 85.1177 64.3307 84.936L60.0884 72.6146ZM43.8677 62.1249H57.0106C56.6779 61.0153 56.2897 59.7665 55.8461 58.3785C55.4016 56.9918 54.9303 55.5072 54.4321 53.9245C53.9328 52.3428 53.4337 50.761 52.9346 49.1791C52.4356 47.5974 51.9781 46.0711 51.5622 44.6003C51.1462 43.1304 50.7719 41.7845 50.4393 40.5626H50.356C49.8878 42.811 49.3047 45.034 48.6093 47.2227C47.832 49.7203 47.0417 52.2734 46.2383 54.8819C45.4338 57.4914 44.6436 59.9057 43.8677 62.1249H43.8677Z" fill="white"/>
<path d="M87.7046 39.8134C86.8562 39.8475 86.0101 39.702 85.2217 39.3864C84.4334 39.0708 83.7204 38.5922 83.1295 37.9819C82.5403 37.3451 82.0826 36.5981 81.7828 35.7837C81.4829 34.9693 81.3469 34.1037 81.3825 33.2365C81.3523 32.3779 81.5033 31.5226 81.8258 30.7264C82.1484 29.9303 82.6351 29.2111 83.2541 28.616C83.8673 28.027 84.591 27.5656 85.3834 27.2584C86.1758 26.9511 87.0213 26.8042 87.8708 26.8261C89.8674 26.8261 91.434 27.4227 92.5708 28.616C93.1446 29.2361 93.5906 29.9634 93.8832 30.7563C94.1758 31.5491 94.3092 32.392 94.2759 33.2365C94.3107 34.1071 94.1703 34.9757 93.8631 35.7909C93.5559 36.6061 93.0881 37.3512 92.4875 37.9819C91.8599 38.6011 91.1108 39.0836 90.2877 39.3988C89.4645 39.714 88.585 39.8552 87.7046 39.8134ZM81.9648 84.6862V44.8917C81.9648 44.3923 82.1858 44.1424 82.6303 44.1424H92.8619C93.3052 44.1424 93.527 44.3922 93.5274 44.8917V84.6862C93.5274 85.2417 93.3056 85.5192 92.8619 85.5188H82.7135C82.2145 85.5188 81.9649 85.2413 81.9648 84.6862V84.6862Z" fill="white"/>
</g>
<defs>
<clipPath id="clip0_54_26">
<rect width="124" height="121" fill="white"/>
</clipPath>
</defs>
</svg>
