<svg width="57" height="38" viewBox="0 0 57 38" fill="none" xmlns="http://www.w3.org/2000/svg">
<g clip-path="url(#clip0_16_20)">
<path d="M16.4956 -9.17178e-05C18.0355 -0.0290026 19.5731 0.13064 21.075 0.475354C22.3395 0.754538 23.5401 1.27406 24.6129 2.00629C25.6037 2.73441 26.3878 3.7133 26.8862 4.8447C27.459 6.23595 27.7353 7.7337 27.6972 9.24017C27.7622 10.8944 27.3445 12.5314 26.4959 13.9471C25.6033 15.2842 24.3694 16.3522 22.9251 17.0375C24.885 17.5718 26.5922 18.7958 27.7395 20.4892C28.8409 22.2836 29.3945 24.3666 29.331 26.4775C29.3673 28.1606 29.0232 29.8298 28.3249 31.358C27.6793 32.691 26.7342 33.8528 25.565 34.7502C24.3613 35.6378 23.0067 36.2945 21.5687 36.6877C20.0773 37.1049 18.5367 37.3144 16.9892 37.3105H0V-9.17178e-05H16.4956ZM15.5153 15.0906C16.7252 15.141 17.9162 14.7747 18.8934 14.0517C19.3614 13.6304 19.7255 13.1042 19.9566 12.5152C20.1876 11.9261 20.2792 11.2906 20.224 10.6594C20.2553 9.92216 20.1101 9.18823 19.8009 8.5199C19.5385 7.98776 19.1305 7.54303 18.6254 7.23856C18.1139 6.90343 17.5392 6.67916 16.9375 6.58008C16.2848 6.45221 15.6206 6.39404 14.9558 6.40654H7.69652V15.1238H15.5153V15.0906ZM15.9385 30.9752C16.6701 30.9852 17.4003 30.9054 18.1129 30.7375C18.7642 30.592 19.3819 30.3217 19.9325 29.9411C20.4719 29.5607 20.9077 29.0489 21.1996 28.453C21.538 27.6931 21.6935 26.863 21.6533 26.0306C21.7267 25.272 21.6273 24.5066 21.3629 23.7929C21.0984 23.0792 20.6758 22.4362 20.1276 21.9132C18.9656 21.0477 17.5416 20.619 16.1006 20.7008H7.69652V30.9752H15.9385Z" fill="#12141D"/>
<path d="M40.2926 30.8374C40.8968 31.4036 41.6083 31.8397 42.3843 32.1192C43.1602 32.3988 43.9842 32.5158 44.8062 32.4634C46.1094 32.4967 47.3873 32.0958 48.4429 31.3224C49.3017 30.7576 49.9521 29.922 50.293 28.9451H56.4309C55.777 31.726 54.1799 34.1873 51.9174 35.9009C49.747 37.3577 47.182 38.0955 44.5782 38.0118C42.7198 38.0365 40.8756 37.6832 39.1549 36.973C37.5983 36.3166 36.2024 35.3244 35.0645 34.0656C33.9308 32.7467 33.0599 31.2187 32.4997 29.5656C31.8709 27.7178 31.5631 25.7738 31.59 23.8198C31.5785 21.8986 31.8967 19.9899 32.5303 18.1786C33.3815 15.6305 35.0091 13.4206 37.1796 11.866C39.35 10.3114 41.9516 9.49203 44.6111 9.5255C46.5746 9.48403 48.5162 9.9487 50.2531 10.8758C51.8229 11.7464 53.1773 12.9655 54.2142 14.4416C55.2748 15.9906 56.035 17.729 56.4545 19.5646C56.9145 21.5357 57.0785 23.5656 56.9411 25.5861H38.6589C38.5107 27.4844 39.0964 29.3668 40.2926 30.8374ZM48.3136 16.6477C47.802 16.1302 47.1867 15.7296 46.5091 15.473C45.8315 15.2162 45.1073 15.1094 44.3854 15.1596C43.4277 15.1226 42.4769 15.3372 41.6256 15.7824C40.9507 16.1581 40.3549 16.6636 39.8718 17.2706C39.4438 17.8396 39.1249 18.4846 38.9315 19.1723C38.7574 19.7459 38.6485 20.3377 38.6071 20.9362H49.9309C49.8323 19.376 49.2703 17.8821 48.3183 16.6501L48.3136 16.6477Z" fill="#12141D"/>
<path d="M51.337 2.49146H37.1475V6.15952H51.337V2.49146Z" fill="#12141D"/>
</g>
<defs>
<clipPath id="clip0_16_20">
<rect width="57" height="38" fill="white"/>
</clipPath>
</defs>
</svg>
