<svg width="55" height="55" viewBox="0 0 55 55" fill="none" xmlns="http://www.w3.org/2000/svg">
<path d="M45.9944 14.5519H34.3757V17.7832H46.0402L45.9944 14.5519ZM43.5423 36.7811C42.6609 37.3651 41.62 37.6614 40.5632 37.629C39.8636 37.702 39.1565 37.6297 38.4861 37.4168C37.8158 37.2038 37.1966 36.8548 36.6673 36.3915C35.6888 35.2821 35.1794 33.836 35.2465 32.3582H50.4173C50.5267 30.8195 50.3952 29.2731 50.0277 27.7749C49.6722 26.3495 49.0502 25.0043 48.1944 23.8103C47.333 22.6521 46.2205 21.704 44.9402 21.0374C43.5158 20.3351 41.9448 19.9816 40.3569 20.0061C38.8635 19.9952 37.3829 20.2835 36.0027 20.854C34.7389 21.3868 33.5937 22.1658 32.634 23.1457C31.677 24.1451 30.9359 25.3308 30.4569 26.629C29.9429 28.0305 29.6867 29.5134 29.7007 31.0061C29.6771 32.52 29.9255 34.0258 30.434 35.4519C30.8659 36.7434 31.5516 37.9355 32.4507 38.9582C33.3808 39.9623 34.5241 40.7453 35.7965 41.2499C37.2153 41.7904 38.7243 42.0549 40.2423 42.029C42.3722 42.0954 44.4751 41.5378 46.2923 40.4249C48.1277 39.1206 49.4492 37.2155 50.0277 35.0394H44.9632C44.692 35.7593 44.1931 36.3709 43.5423 36.7811V36.7811ZM35.6819 27.3394C35.8603 26.7681 36.1563 26.2404 36.551 25.7905C36.9457 25.3405 37.4303 24.9782 37.9736 24.7269C38.6931 24.4031 39.4765 24.2464 40.2652 24.2686C40.835 24.2199 41.4085 24.2951 41.9465 24.4889C42.4844 24.6828 42.9741 24.9907 43.3819 25.3915C44.1606 26.3447 44.6603 27.4948 44.8257 28.7144H35.3152C35.3523 28.2487 35.4368 27.788 35.5673 27.3394H35.6819ZM23.559 26.2394C24.7254 25.7538 25.7388 24.962 26.4923 23.9478C27.1849 22.8707 27.529 21.6065 27.4777 20.3269C27.5227 19.1601 27.2951 17.9989 26.8132 16.9353C26.4082 16.0138 25.7583 15.2212 24.934 14.6436C24.0601 14.0431 23.0677 13.6368 22.0236 13.4519C20.7879 13.1928 19.5276 13.0698 18.2652 13.0853H4.58398V41.9144H18.5632C19.8389 41.9154 21.1096 41.7536 22.3444 41.4332C23.5149 41.1304 24.6237 40.6264 25.6215 39.9436C26.588 39.2738 27.375 38.3766 27.9132 37.3311C28.5088 36.1619 28.8004 34.8615 28.7611 33.5499C28.8045 31.9245 28.3486 30.3248 27.4548 28.9665C26.4937 27.6005 25.0681 26.6311 23.4444 26.2394H23.559ZM10.9319 18.0124H16.8673C17.4126 18.0117 17.957 18.0577 18.4944 18.1499C18.9893 18.2232 19.4645 18.3946 19.8923 18.654C20.3056 18.8878 20.6405 19.2386 20.8548 19.6624C21.1202 20.1705 21.2467 20.7397 21.2215 21.3124C21.2642 21.8056 21.1888 22.3019 21.0015 22.7602C20.8141 23.2185 20.5204 23.6256 20.1444 23.9478C19.3243 24.5116 18.3429 24.7931 17.3486 24.7499H10.9319V18.0124ZM22.0236 35.0624C21.7881 35.5294 21.4321 35.925 20.9923 36.2082C20.5347 36.4928 20.0304 36.6945 19.5027 36.804C18.9162 36.9353 18.3162 36.9969 17.7152 36.9874H10.8402V29.0811H17.7152C18.895 29.0294 20.0601 29.3589 21.0382 30.0207C21.48 30.4172 21.8223 30.9122 22.0373 31.4656C22.2523 32.019 22.3339 32.6153 22.2757 33.2061C22.3376 33.8361 22.2513 34.4718 22.0236 35.0624V35.0624Z" fill="#6244C5"/>
</svg>
