<svg width="156" height="125" viewBox="0 0 156 125" fill="none" xmlns="http://www.w3.org/2000/svg">
<g clip-path="url(#clip0_54_63)">
<path fill-rule="evenodd" clip-rule="evenodd" d="M32.4017 0.264893C23.5005 0.264893 16.9141 8.06812 17.2089 16.5308C17.4918 24.6611 17.1243 35.1907 14.4776 43.7779C11.8229 52.3902 7.33332 57.8457 0 58.5461V66.454C7.33332 67.1545 11.8229 72.61 14.4776 81.2223C17.1243 89.8094 17.4918 100.339 17.2089 108.469C16.9141 116.931 23.5005 124.735 32.4031 124.735H123.61C132.511 124.735 139.096 116.932 138.802 108.469C138.519 100.339 138.886 89.8094 141.533 81.2223C144.189 72.61 148.667 67.1545 156 66.454V58.5461C148.667 57.8457 144.189 52.3902 141.533 43.7779C138.886 35.1921 138.519 24.6611 138.802 16.5308C139.096 8.06945 132.511 0.264893 123.61 0.264893H32.4004H32.4017ZM105.763 76.8843C105.763 88.5369 97.0849 95.6039 82.684 95.6039H58.1695C57.4682 95.6039 56.7957 95.3249 56.2999 94.8282C55.804 94.3315 55.5254 93.6579 55.5254 92.9556V32.0446C55.5254 31.3422 55.804 30.6686 56.2999 30.1719C56.7957 29.6753 57.4682 29.3962 58.1695 29.3962H82.5438C94.5519 29.3962 102.433 35.9111 102.433 45.9137C102.433 52.9344 97.1312 59.2201 90.3769 60.3205V60.6873C99.5716 61.6976 105.763 68.0747 105.763 76.8843ZM80.0108 37.7914H66.033V57.5663H77.8057C86.9065 57.5663 91.925 53.8957 91.925 47.3345C91.925 41.1865 87.6099 37.7914 80.0108 37.7914V37.7914ZM66.033 65.4132V87.2061H80.5251C90.0001 87.2061 95.0199 83.3978 95.0199 76.2408C95.0199 69.0824 89.86 65.4119 79.9156 65.4119H66.033V65.4132Z" fill="#6244C5"/>
</g>
<defs>
<clipPath id="clip0_54_63">
<rect width="156" height="125" fill="white"/>
</clipPath>
</defs>
</svg>
