<svg width="269" height="86" viewBox="0 0 269 86" fill="none" xmlns="http://www.w3.org/2000/svg">
<g clip-path="url(#clip0_54_68)">
<path d="M267.131 58.7815C266.673 58.7815 266.257 59.0764 266.041 59.6932C263.284 67.5369 259.558 72.203 256.491 72.203C254.729 72.203 254.017 70.2454 254.017 67.1749C254.017 59.4921 258.63 43.2012 260.957 35.773C261.226 34.8747 261.401 34.0702 261.401 33.3863C261.401 31.2277 260.217 30.1684 257.285 30.1684C254.124 30.1684 250.722 31.402 247.413 37.1808C246.27 32.0858 242.813 29.86 237.984 29.86C232.402 29.86 227.009 33.44 222.571 39.2457C218.132 45.0514 212.914 46.9554 208.986 46.0169C211.811 39.1251 212.86 33.9763 212.86 30.1549C212.86 24.1615 209.887 20.5413 205.086 20.5413C197.782 20.5413 193.572 27.4867 193.572 34.7942C193.572 40.439 196.142 46.2448 201.791 49.0605C197.056 59.7334 190.142 69.3873 187.52 69.3873C184.131 69.3873 183.136 52.855 183.324 41.029C183.444 34.2444 184.01 33.8959 184.01 31.8444C184.01 30.6645 183.242 29.86 180.163 29.86C172.981 29.86 170.762 35.9205 170.425 42.8793C170.317 45.5238 169.901 48.147 169.187 50.6963C166.189 61.3692 160.002 69.4678 155.967 69.4678C154.096 69.4678 153.585 67.604 153.585 65.1637C153.585 57.4808 157.903 47.8805 157.903 39.6882C157.903 33.6679 155.254 29.86 150.263 29.86C144.386 29.86 136.612 36.8323 129.255 49.8918C131.676 39.8893 132.67 30.2086 125.502 30.2086C123.947 30.2317 122.42 30.6272 121.05 31.3617C120.59 31.5761 120.206 31.9235 119.946 32.3588C119.687 32.794 119.566 33.2969 119.597 33.802C120.283 44.4481 110.989 71.7203 102.179 71.7203C100.579 71.7203 99.799 69.9907 99.799 67.2018C99.799 59.5055 104.399 43.2547 106.712 35.8132C107.009 34.8478 107.17 34.0165 107.17 33.2925C107.17 31.2545 105.905 30.2086 103.041 30.2086C99.893 30.2086 96.477 31.402 93.1818 37.1808C92.0247 32.0858 88.5683 29.86 83.74 29.86C75.8177 29.86 66.9676 38.2133 63.0805 49.1007C57.8754 63.6352 47.3844 77.6732 33.2619 77.6732C20.444 77.6732 13.6787 67.0409 13.6787 50.2404C13.6787 25.985 31.5403 6.16776 44.7885 6.16776C51.1235 6.16776 54.1497 10.1902 54.1497 16.358C54.1497 23.8263 49.9668 27.2991 49.9668 30.1416C49.9668 31.0131 50.693 31.8712 52.1322 31.8712C57.8888 31.8712 64.6676 25.1269 64.6676 15.9289C64.6676 6.7309 57.176 0 43.9277 0C22.0311 0 0 21.9626 0 50.1063C0 72.498 11.0828 86 30.2491 86C43.3225 86 54.7415 75.8634 60.9016 64.0374C61.601 73.8388 66.0664 78.9609 72.8721 78.9609C78.9248 78.9609 83.8202 75.3674 87.5595 69.0521C88.9985 75.6623 92.8188 78.894 97.7815 78.894C103.471 78.894 108.232 75.3003 112.764 68.6231C112.697 73.8656 113.895 78.7996 118.454 78.7996C120.606 78.7996 123.175 78.3034 123.632 76.4266C128.434 56.6361 140.297 40.4793 143.929 40.4793C145.005 40.4793 145.301 41.5117 145.301 42.7318C145.301 48.1085 141.494 59.13 141.494 66.1693C141.494 73.7718 144.736 78.7996 151.433 78.7996C158.858 78.7996 166.403 69.7359 171.434 56.4886C173.008 68.8644 176.411 78.8536 181.736 78.8536C188.273 78.8536 199.881 65.1369 206.914 50.6159C209.672 50.9644 213.815 50.8706 217.796 48.0683C216.101 52.3455 215.106 57.0249 215.106 61.7044C215.106 75.1796 221.562 78.9609 227.117 78.9609C233.156 78.9609 238.051 75.3674 241.804 69.0521C243.042 74.7505 246.202 78.8803 252.012 78.8803C261.105 78.8803 269 69.6153 269 62.0128C269 60.0016 268.14 58.7815 267.131 58.7815ZM78.4135 71.4923C74.7417 71.4923 73.3025 67.8051 73.3025 62.3078C73.3025 52.7612 79.8525 36.8188 86.7792 36.8188C89.8055 36.8188 90.9488 40.372 90.9488 44.7163C90.9488 54.4104 84.7212 71.4923 78.4135 71.4923ZM204.185 43C201.992 40.3988 201.198 36.8591 201.198 33.7081C201.198 29.8198 202.624 26.5348 204.332 26.5348C206.04 26.5348 206.565 28.2108 206.565 30.5438C206.565 34.4456 205.166 40.144 204.185 43ZM232.658 71.4923C228.986 71.4923 227.547 67.2553 227.547 62.3078C227.547 53.0963 234.097 36.8188 241.078 36.8188C244.104 36.8188 245.18 40.3452 245.18 44.7163C245.18 54.4104 239.06 71.4923 232.658 71.4923Z" fill="#6244C5"/>
</g>
<defs>
<clipPath id="clip0_54_68">
<rect width="269" height="86" fill="white"/>
</clipPath>
</defs>
</svg>
