<svg width="137" height="131" viewBox="0 0 137 131" fill="none" xmlns="http://www.w3.org/2000/svg">
<path d="M8.7506 37.746L21.6622 8.73683C21.6622 8.73683 23.2614 4.71922 27.9996 6.78706C32.7378 8.85489 63.3586 24.3343 71.5321 25.8114C79.7057 27.2884 86.9313 23.1527 91.7289 16.5947C96.5265 10.0367 98.0663 6.31448 98.0663 6.31448C98.0663 6.31448 100.021 3.00591 103.811 4.83745C107.602 6.66899 131.649 21.853 131.649 21.853C131.649 21.853 133.958 23.5072 131.826 27.4657C129.694 31.4242 119.448 50.9802 99.5468 61.4967C99.5468 61.4967 91.4522 66.2039 77.5535 66.3613C63.6548 66.5186 47.1499 59.6652 35.936 54.7023C24.7221 49.7393 10.6656 42.5712 10.6656 42.5712C10.6656 42.5712 8.02011 41.5862 8.7506 37.746Z" fill="#6244C5"/>
<path d="M127.627 94.9358L114.715 123.945C114.715 123.945 113.116 127.962 108.378 125.895C103.64 123.827 73.0187 108.347 64.8453 106.87C56.6716 105.393 49.4459 109.529 44.6484 116.087C39.851 122.645 38.311 126.367 38.311 126.367C38.311 126.367 36.3564 129.675 32.5659 127.844C28.7754 126.013 4.72883 110.829 4.72883 110.829C4.72883 110.829 2.419 109.174 4.55105 105.216C6.68326 101.257 16.9297 81.7013 36.8304 71.1848C36.8304 71.1848 44.9249 66.4778 58.8237 66.3203C72.7224 66.1629 89.2271 73.0165 100.441 77.9791C111.655 82.9422 125.712 90.1109 125.712 90.1109C125.712 90.1109 128.357 91.0953 127.627 94.9358Z" fill="#6244C5"/>
</svg>
