<svg width="82" height="124" viewBox="0 0 82 124" fill="none" xmlns="http://www.w3.org/2000/svg">
<g clip-path="url(#clip0_54_36)">
<path d="M20.5042 124C31.8179 124 41.0001 114.741 41.0001 103.333V82.6667H20.5042C9.19046 82.6667 0.00830078 91.9254 0.00830078 103.333C0.00830078 114.741 9.19046 124 20.5042 124Z" fill="#6244C5"/>
<path d="M0.00830078 61.9999C0.00830078 50.5919 9.19046 41.3333 20.5042 41.3333H41.0001V82.6666H20.5042C9.19046 82.6666 0.00830078 73.4079 0.00830078 61.9999Z" fill="#6244C5"/>
<path d="M0.00830078 20.6667C0.00830078 9.25867 9.19046 0 20.5042 0H41.0001V41.3333H20.5042C9.19046 41.3333 0.00830078 32.0747 0.00830078 20.6667Z" fill="#6244C5"/>
<path d="M41 0H61.4959C72.8096 0 81.9918 9.25867 81.9918 20.6667C81.9918 32.0747 72.8096 41.3333 61.4959 41.3333H41V0Z" fill="#6244C5"/>
<path d="M81.9918 61.9999C81.9918 73.4079 72.8096 82.6666 61.4959 82.6666C50.1822 82.6666 41 73.4079 41 61.9999C41 50.5919 50.1822 41.3333 61.4959 41.3333C72.8096 41.3333 81.9918 50.5919 81.9918 61.9999Z" fill="#6244C5"/>
</g>
<defs>
<clipPath id="clip0_54_36">
<rect width="82" height="124" fill="white"/>
</clipPath>
</defs>
</svg>
