<svg width="129" height="129" viewBox="0 0 129 129" fill="none" xmlns="http://www.w3.org/2000/svg">
<path fill-rule="evenodd" clip-rule="evenodd" d="M64.5 0C28.8637 0 0 28.8637 0 64.5C0 93.0412 18.4631 117.148 44.1019 125.694C47.3269 126.259 48.5362 124.324 48.5362 122.631C48.5362 121.099 48.4556 116.019 48.4556 110.618C32.25 113.601 28.0575 106.667 26.7675 103.039C26.0419 101.184 22.8975 95.46 20.1562 93.9281C17.8987 92.7187 14.6737 89.7356 20.0756 89.655C25.155 89.5744 28.7831 94.3312 29.9925 96.2662C35.7975 106.022 45.0694 103.281 48.7781 101.588C49.3425 97.395 51.0356 94.5731 52.89 92.9606C38.5387 91.3481 23.5425 85.785 23.5425 61.1137C23.5425 54.0994 26.0419 48.2944 30.1538 43.7794C29.5088 42.1669 27.2512 35.5556 30.7987 26.6869C30.7987 26.6869 36.2006 24.9938 48.5362 33.2981C53.6962 31.8469 59.1788 31.1212 64.6613 31.1212C70.1438 31.1212 75.6263 31.8469 80.7863 33.2981C93.1219 24.9131 98.5238 26.6869 98.5238 26.6869C102.071 35.5556 99.8138 42.1669 99.1688 43.7794C103.281 48.2944 105.78 54.0187 105.78 61.1137C105.78 85.8656 90.7031 91.3481 76.3519 92.9606C78.69 94.9762 80.7056 98.8463 80.7056 104.893C80.7056 113.52 80.625 120.454 80.625 122.631C80.625 124.324 81.8344 126.339 85.0594 125.694C97.8638 121.372 108.99 113.142 116.873 102.165C124.755 91.1874 128.997 78.0144 129 64.5C129 28.8637 100.136 0 64.5 0Z" fill="#6244C5"/>
</svg>
