<svg width="47" height="47" viewBox="0 0 47 47" fill="none" xmlns="http://www.w3.org/2000/svg">
<path d="M16.8906 41.8594C16.8906 41.8594 15.4219 35.9844 18.3594 33.0469C18.3594 33.0469 12.4844 33.0469 8.07812 28.6406C3.67188 24.2344 5.14062 15.4219 8.07812 12.4844C6.60938 8.07812 9.54688 5.14062 9.54688 5.14062C9.54688 5.14062 13.9531 5.14062 16.8906 8.07812C19.8281 6.60938 27.1719 6.60938 30.1094 8.07812C33.0469 5.14062 37.4531 5.14062 37.4531 5.14062C37.4531 5.14062 40.3906 8.07812 38.9219 12.4844C41.8594 15.4219 43.3281 24.2344 38.9219 28.6406C34.5156 33.0469 28.6406 33.0469 28.6406 33.0469C31.5781 35.9844 30.1094 41.8594 30.1094 41.8594M15.4219 40.3906C11.0156 41.8594 6.60938 38.9219 5.14062 37.4531" stroke="#6244C5" stroke-width="4" stroke-linecap="round" stroke-linejoin="round"/>
</svg>
