<svg id="graphic" xmlns="http://www.w3.org/2000/svg" xmlns:xlink="http://www.w3.org/1999/xlink" viewBox="0 0 500 500"><defs><style>.cls-1{fill:url(#linear-gradient);}.cls-2{fill:#13151e;}.cls-3{fill:#3d6ce2;}.cls-4{fill:#e2e2e2;}.cls-5{fill:#232323;opacity:0.2;}.cls-6{fill:#fff;}.cls-7{fill:url(#linear-gradient-2);}.cls-8,.cls-9{fill:none;stroke-linecap:round;stroke-linejoin:round;}.cls-8{stroke:#ffc448;stroke-width:3px;}.cls-9{stroke:#12141d;stroke-width:5px;}</style><linearGradient id="linear-gradient" x1="180.03" y1="295.44" x2="411.51" y2="161.8" gradientUnits="userSpaceOnUse"><stop offset="0" stop-color="#6244c5"/><stop offset="0.57" stop-color="#ae45c4"/><stop offset="1" stop-color="#3d6ce2"/></linearGradient><linearGradient id="linear-gradient-2" x1="122.63" y1="430.43" x2="138.24" y2="387.53" xlink:href="#linear-gradient"/></defs><title>Artboard 1</title><path class="cls-1" d="M240.81,400.71l130.94,0L445,219.9,322.29,16.24h-9.66l-.25,184s15.12,3.51,13.62,22.89-25.62,19.5-33.37,10.63-11.17-24.9,7.73-33.51v-184H289.5L168,218.75Z"/><path class="cls-2" d="M313.22,183.67l-2.35-.42,0,16.89,1.55.36c.6.14,14.64,3.62,13.17,22.62-.56,7.26-4.52,12.47-11.14,14.67-7.53,2.5-17.13.54-21.41-4.35-3.83-4.38-7.37-11.61-5.82-18.75,1.3-6,5.84-10.81,13.5-14.3l1.17-.53V183.28l-2.37.44a37.91,37.91,0,1,0,13.72-.05Z"/><polygon class="cls-3" points="240 416.17 371.83 416.17 387.85 479.67 224 480.37 240 416.17"/><circle class="cls-3" cx="131.03" cy="409.03" r="38.03"/><circle class="cls-3" cx="131.03" cy="409.03" r="38.03"/><circle class="cls-4" cx="130.44" cy="408.98" r="22.82"/><polygon class="cls-5" points="260.79 400.7 187.98 218.75 300.36 31.46 300.36 16.25 289.5 16.25 168 218.75 240.81 400.7 371.75 400.75 371.75 400.74 260.79 400.7"/><polygon class="cls-5" points="260.58 416.17 240 416.17 224 480.37 244.6 480.28 260.58 416.17"/><circle class="cls-3" cx="131.03" cy="409.03" r="38.03"/><circle class="cls-6" cx="130.44" cy="408.98" r="28.62"/><circle class="cls-7" cx="130.44" cy="408.98" r="22.82"/><polygon class="cls-8" points="372.44 415.85 367.63 415.85 244.83 415.85 240.03 415.85 224.61 480.37 232.7 480.37 379.76 480.37 387.85 480.37 372.44 415.85"/><polyline class="cls-8" points="240.81 400.7 372.44 400.7 445.05 219.71 322.29 16.25 312.63 16.25 312.37 199.59"/><polyline class="cls-8" points="240.28 400.7 167.67 219.71 290.43 16.25 300.09 16.25 300.36 199.59"/><path class="cls-8" d="M312.38,200.24a20.11,20.11,0,1,1-12.18.07"/><circle class="cls-8" cx="130.42" cy="408.98" r="38.09"/><line class="cls-9" x1="56.06" y1="408.98" x2="204.78" y2="408.98"/><line class="cls-9" x1="130.42" y1="483.33" x2="130.42" y2="334.62"/></svg>