<svg width="47" height="47" viewBox="0 0 47 47" fill="none" xmlns="http://www.w3.org/2000/svg">
<path d="M23.9349 0.821289C14.3022 0.821289 11.485 0.83123 10.9374 0.876664C8.96057 1.04103 7.7305 1.35236 6.39037 2.01974C5.35763 2.53273 4.54312 3.12734 3.73927 3.96088C2.27532 5.48097 1.38807 7.35109 1.06687 9.57409C0.910726 10.6533 0.865292 10.8734 0.856066 16.3858C0.852525 18.2232 0.856066 20.6415 0.856066 23.8851C0.856066 33.5126 0.866705 36.3277 0.912853 36.8744C1.07256 38.7985 1.37422 40.009 2.01304 41.3332C3.2339 43.8679 5.56558 45.7706 8.31252 46.4806C9.26366 46.7256 10.3142 46.8605 11.6628 46.9244C12.2342 46.9492 18.0581 46.967 23.8855 46.967C29.713 46.967 35.5405 46.9599 36.0976 46.9315C37.6592 46.858 38.566 46.7362 39.5686 46.4771C42.3333 45.7635 44.6224 43.8892 45.868 41.319C46.4944 40.0268 46.8121 38.7701 46.9558 36.9465C46.987 36.5489 47.0002 30.2097 47.0002 23.8791C47.0002 17.5473 46.986 11.2198 46.9548 10.8222C46.8092 8.96917 46.4916 7.72314 45.845 6.40609C45.3144 5.32796 44.7253 4.52282 43.87 3.69961C42.3436 2.24127 40.4768 1.35378 38.2523 1.03286C37.1744 0.877013 36.9597 0.830864 31.4445 0.821289H23.9349Z" fill="#12141D"/>
<path d="M23.9349 0.821289C14.3022 0.821289 11.485 0.83123 10.9374 0.876664C8.96057 1.04103 7.7305 1.35236 6.39037 2.01974C5.35763 2.53273 4.54312 3.12734 3.73927 3.96088C2.27532 5.48097 1.38807 7.35109 1.06687 9.57409C0.910726 10.6533 0.865292 10.8734 0.856066 16.3858C0.852525 18.2232 0.856066 20.6415 0.856066 23.8851C0.856066 33.5126 0.866705 36.3277 0.912853 36.8744C1.07256 38.7985 1.37422 40.009 2.01304 41.3332C3.2339 43.8679 5.56558 45.7706 8.31252 46.4806C9.26366 46.7256 10.3142 46.8605 11.6628 46.9244C12.2342 46.9492 18.0581 46.967 23.8855 46.967C29.713 46.967 35.5405 46.9599 36.0976 46.9315C37.6592 46.858 38.566 46.7362 39.5686 46.4771C42.3333 45.7635 44.6224 43.8892 45.868 41.319C46.4944 40.0268 46.8121 38.7701 46.9558 36.9465C46.987 36.5489 47.0002 30.2097 47.0002 23.8791C47.0002 17.5473 46.986 11.2198 46.9548 10.8222C46.8092 8.96917 46.4916 7.72314 45.845 6.40609C45.3144 5.32796 44.7253 4.52282 43.87 3.69961C42.3436 2.24127 40.4768 1.35378 38.2523 1.03286C37.1744 0.877013 36.9597 0.830864 31.4445 0.821289H23.9349Z" fill="#12141D"/>
<path d="M23.9349 0.821289C14.3022 0.821289 11.485 0.83123 10.9374 0.876664C8.96057 1.04103 7.7305 1.35236 6.39037 2.01974C5.35763 2.53273 4.54312 3.12734 3.73927 3.96088C2.27532 5.48097 1.38807 7.35109 1.06687 9.57409C0.910726 10.6533 0.865292 10.8734 0.856066 16.3858C0.852525 18.2232 0.856066 20.6415 0.856066 23.8851C0.856066 33.5126 0.866705 36.3277 0.912853 36.8744C1.07256 38.7985 1.37422 40.009 2.01304 41.3332C3.2339 43.8679 5.56558 45.7706 8.31252 46.4806C9.26366 46.7256 10.3142 46.8605 11.6628 46.9244C12.2342 46.9492 18.0581 46.967 23.8855 46.967C29.713 46.967 35.5405 46.9599 36.0976 46.9315C37.6592 46.858 38.566 46.7362 39.5686 46.4771C42.3333 45.7635 44.6224 43.8892 45.868 41.319C46.4944 40.0268 46.8121 38.7701 46.9558 36.9465C46.987 36.5489 47.0002 30.2097 47.0002 23.8791C47.0002 17.5473 46.986 11.2198 46.9548 10.8222C46.8092 8.96917 46.4916 7.72314 45.845 6.40609C45.3144 5.32796 44.7253 4.52282 43.87 3.69961C42.3436 2.24127 40.4768 1.35378 38.2523 1.03286C37.1744 0.877013 36.9597 0.830864 31.4445 0.821289H23.9349Z" fill="#12141D"/>
<path d="M23.9349 0.821289C14.3022 0.821289 11.485 0.83123 10.9374 0.876664C8.96057 1.04103 7.7305 1.35236 6.39037 2.01974C5.35763 2.53273 4.54312 3.12734 3.73927 3.96088C2.27532 5.48097 1.38807 7.35109 1.06687 9.57409C0.910726 10.6533 0.865292 10.8734 0.856066 16.3858C0.852525 18.2232 0.856066 20.6415 0.856066 23.8851C0.856066 33.5126 0.866705 36.3277 0.912853 36.8744C1.07256 38.7985 1.37422 40.009 2.01304 41.3332C3.2339 43.8679 5.56558 45.7706 8.31252 46.4806C9.26366 46.7256 10.3142 46.8605 11.6628 46.9244C12.2342 46.9492 18.0581 46.967 23.8855 46.967C29.713 46.967 35.5405 46.9599 36.0976 46.9315C37.6592 46.858 38.566 46.7362 39.5686 46.4771C42.3333 45.7635 44.6224 43.8892 45.868 41.319C46.4944 40.0268 46.8121 38.7701 46.9558 36.9465C46.987 36.5489 47.0002 30.2097 47.0002 23.8791C47.0002 17.5473 46.986 11.2198 46.9548 10.8222C46.8092 8.96917 46.4916 7.72314 45.845 6.40609C45.3144 5.32796 44.7253 4.52282 43.87 3.69961C42.3436 2.24127 40.4768 1.35378 38.2523 1.03286C37.1744 0.877013 36.9597 0.830864 31.4445 0.821289H23.9349Z" fill="#12141D"/>
<path d="M23.9366 6.74634C19.2769 6.74634 18.6922 6.76669 16.862 6.84992C15.0355 6.9335 13.7887 7.22246 12.6978 7.64644C11.5694 8.08433 10.6121 8.6701 9.65847 9.62341C8.70411 10.5764 8.11789 11.5329 7.67824 12.6601C7.25287 13.7506 6.96333 14.9968 6.88113 16.8213C6.79928 18.65 6.77783 19.2347 6.77783 23.8909C6.77783 28.5471 6.79857 29.1296 6.88148 30.9584C6.9655 32.7836 7.25467 34.0294 7.67858 35.1195C8.11717 36.2472 8.70338 37.2037 9.65739 38.1566C10.6107 39.1103 11.5679 39.6975 12.6957 40.1354C13.7873 40.5594 15.0344 40.8483 16.8606 40.9319C18.6907 41.0151 19.2751 41.0355 23.9344 41.0355C28.5944 41.0355 29.1774 41.0151 31.0075 40.9319C32.8341 40.8483 34.0823 40.5594 35.1739 40.1354C36.302 39.6975 37.2578 39.1103 38.2111 38.1566C39.1655 37.2037 39.7517 36.2472 40.1913 35.1199C40.6131 34.0294 40.9027 32.7832 40.9884 30.9588C41.0706 29.13 41.0921 28.5471 41.0921 23.8909C41.0921 19.2347 41.0706 18.6504 40.9884 16.8216C40.9027 14.9964 40.6131 13.7506 40.1913 12.6605C39.7517 11.5329 39.1655 10.5764 38.2111 9.62341C37.2567 8.66974 36.3023 8.08397 35.1728 7.64643C34.079 7.22246 32.8316 6.9335 31.005 6.84992C29.1749 6.76669 28.5923 6.74634 23.9312 6.74634H23.9366ZM22.3974 9.83594C22.8542 9.83522 23.3639 9.83594 23.9366 9.83594C28.5176 9.83594 29.0605 9.85237 30.8695 9.93452C32.5424 10.011 33.4503 10.2903 34.0551 10.5249C34.8558 10.8357 35.4266 11.2071 36.0268 11.8072C36.6273 12.4073 36.999 12.9788 37.3107 13.7788C37.5455 14.3824 37.8254 15.2897 37.9015 16.9613C37.9838 18.7686 38.0016 19.3115 38.0016 23.887C38.0016 28.4624 37.9838 29.0054 37.9015 30.8127C37.825 32.4843 37.5455 33.3915 37.3107 33.9951C36.9997 34.7952 36.6273 35.3649 36.0268 35.9646C35.4263 36.5647 34.8561 36.9361 34.0551 37.2469C33.451 37.4826 32.5424 37.7612 30.8695 37.8377C29.0609 37.9198 28.5176 37.9377 23.9366 37.9377C19.3552 37.9377 18.8123 37.9198 17.0036 37.8377C15.3308 37.7605 14.4229 37.4812 13.8177 37.2465C13.017 36.9358 12.4451 36.5643 11.8446 35.9643C11.2441 35.3642 10.8724 34.7942 10.5607 33.9937C10.3258 33.3901 10.0459 32.4828 9.96981 30.8112C9.8876 29.0039 9.87115 28.461 9.87115 23.8827C9.87115 19.3044 9.8876 18.7643 9.96981 16.957C10.0463 15.2854 10.3258 14.3782 10.5607 13.7738C10.8716 12.9737 11.2441 12.4023 11.8446 11.8022C12.4451 11.2021 13.017 10.8307 13.8177 10.5192C14.4225 10.2835 15.3308 10.0049 17.0036 9.92808C18.5863 9.85664 19.1997 9.83522 22.3974 9.83163L22.3974 9.83594ZM33.095 12.6826C31.9583 12.6826 31.0361 13.6031 31.0361 14.7393C31.0361 15.8751 31.9583 16.7966 33.095 16.7966C34.2317 16.7966 35.1539 15.8751 35.1539 14.7393C35.1539 13.6035 34.2317 12.6819 33.095 12.6819L33.095 12.6826ZM23.9366 15.0865C19.0707 15.0865 15.1256 19.0286 15.1256 23.8909C15.1256 28.7532 19.0707 32.6936 23.9366 32.6936C28.8025 32.6936 32.7461 28.7532 32.7461 23.8909C32.7461 19.0286 28.8021 15.0865 23.9362 15.0865H23.9366ZM23.9366 18.1761C27.0949 18.1761 29.6557 20.7345 29.6557 23.8909C29.6557 27.0469 27.0949 29.6058 23.9366 29.6058C20.7778 29.6058 18.2175 27.0469 18.2175 23.8909C18.2175 20.7345 20.7778 18.1761 23.9366 18.1761Z" fill="#FFC448"/>
</svg>
