<svg width="501" height="413" viewBox="0 0 501 413" fill="none" xmlns="http://www.w3.org/2000/svg">
<path d="M4.11604 134.531L90.7629 72.8843L163.686 70.8071L277.113 111.163L277.336 211.831L190.615 273.478L190.837 342.321L163.834 361.163L3.74512 304.116L4.11604 134.531Z" fill="url(#paint0_linear_20_216)"/>
<path d="M163.76 191.702L277.113 111.163L277.706 211.584L190.763 273.799L190.664 342.642L163.76 360.842V191.702Z" fill="#49389E"/>
<path d="M4.07861 134.717L164.056 191.603L277.113 111.163L163.685 70.8071L90.1691 73.1068L4.07861 134.717Z" fill="#3D6CE2"/>
<path d="M350.407 329.932L464.131 249.962L350.703 209.309L277.558 212.029L190.614 273.478L350.407 329.932Z" fill="#3D6CE2"/>
<path d="M190.651 356.082L350.456 412.177L350.604 329.685L190.614 273.478L190.651 356.082Z" fill="url(#paint1_linear_20_216)"/>
<path d="M464.131 249.961L464.354 332.256L350.592 412.332L350.295 412.072L350.407 329.932L464.131 249.961Z" fill="#49389E"/>
<path d="M386.905 146.549L500.259 67.0237L500.456 237.35L464.205 262.326L464.131 249.961L432.653 238.685L386.658 221.821V215.788L386.905 146.549Z" fill="#49389E"/>
<path d="M236.238 83.5668L233.641 89.0564L245.214 96.4007L386.905 146.549L500.258 67.0238L386.534 26.371L356.094 23.2552L313.463 28.819L236.238 83.5668Z" fill="#3D6CE2"/>
<path d="M375.852 218.285C375.852 218.285 386.757 222.105 386.757 221.957C386.757 221.809 386.683 209.642 386.683 209.642L386.51 146.499L245.214 96.4006L244.868 99.6152L277.113 111.163L277.311 204.067L316.678 203.77L338.636 203.671L350.407 206.737L350.703 209.309L375.852 218.285Z" fill="url(#paint2_linear_20_216)"/>
<path d="M127.261 84.3158C147.419 84.3158 163.76 76.2932 163.76 66.3968C163.76 56.5004 147.419 48.4778 127.261 48.4778C107.104 48.4778 90.7627 56.5004 90.7627 66.3968C90.7627 76.2932 107.104 84.3158 127.261 84.3158Z" fill="white"/>
<path d="M90.812 67.7556C90.812 67.7556 91.7022 74.3283 100.864 78.8814C110.026 83.4345 122.822 85.234 132.837 84.1322C142.852 83.0304 153.905 80.1298 158.06 75.9069C162.214 71.6844 162.103 72.0514 162.77 70.2155C163.438 68.3796 163.475 67.682 163.475 67.682L163.698 89.4565C163.698 89.4565 163.883 97.2411 149.417 103.3C134.951 109.358 114.402 106.604 106.687 104.034C98.9722 101.464 91.5909 96.2129 90.7378 90.3378L90.812 67.7556Z" fill="url(#paint3_linear_20_216)"/>
<path d="M208.913 113.706C228.906 113.706 245.115 105.653 245.115 95.7184C245.115 85.7844 228.906 77.7312 208.913 77.7312C188.919 77.7312 172.711 85.7844 172.711 95.7184C172.711 105.653 188.919 113.706 208.913 113.706Z" fill="white"/>
<path d="M172.76 97.0823C172.76 97.0823 173.643 103.68 182.73 108.251C191.817 112.821 204.51 114.627 214.444 113.521C224.377 112.415 235.341 109.504 239.461 105.265C243.582 101.026 243.471 101.395 244.134 99.552C244.796 97.7093 244.833 97.0087 244.833 97.0087L245.053 118.866C245.053 118.866 245.237 126.68 230.889 132.762C216.541 138.844 196.159 136.079 188.506 133.499C180.854 130.919 173.533 125.648 172.687 119.751L172.76 97.0823Z" fill="url(#paint4_linear_20_216)"/>
<path d="M154.251 152.393C174.491 152.393 190.898 144.34 190.898 134.405C190.898 124.471 174.491 116.418 154.251 116.418C134.012 116.418 117.604 124.471 117.604 134.405C117.604 144.34 134.012 152.393 154.251 152.393Z" fill="white"/>
<path d="M117.654 135.769C117.654 135.769 118.549 142.367 127.747 146.937C136.946 151.508 149.795 153.314 159.851 152.208C169.906 151.102 181.005 148.191 185.176 143.952C189.347 139.713 189.235 140.082 189.906 138.239C190.576 136.396 190.613 135.696 190.613 135.696L190.837 157.553C190.837 157.553 191.023 165.367 176.498 171.449C161.974 177.531 141.341 174.766 133.595 172.186C125.849 169.606 118.437 164.335 117.581 158.437L117.654 135.769Z" fill="url(#paint5_linear_20_216)"/>
<path d="M314.303 222.958C334.495 222.958 350.864 214.83 350.864 204.802C350.864 194.775 334.495 186.646 314.303 186.646C294.112 186.646 277.743 194.775 277.743 204.802C277.743 214.83 294.112 222.958 314.303 222.958Z" fill="white"/>
<path d="M277.873 206.434C277.873 206.434 278.685 213.059 287.862 217.42C297.04 221.78 309.858 223.504 319.889 222.449C329.922 221.394 340.994 218.616 345.155 214.572C349.316 210.527 349.205 210.879 349.873 209.121C350.543 207.362 350.579 206.694 350.579 206.694L350.803 227.547C350.803 227.547 350.988 235.003 336.498 240.805C322.008 246.607 301.424 243.97 293.695 241.509C285.967 239.047 278.573 234.018 277.719 228.392L277.873 206.434Z" fill="url(#paint6_linear_20_216)"/>
<path d="M396.006 251.841C416.197 251.841 432.566 243.712 432.566 233.685C432.566 223.657 416.197 215.528 396.006 215.528C375.814 215.528 359.445 223.657 359.445 233.685C359.445 243.712 375.814 251.841 396.006 251.841Z" fill="white"/>
<path d="M359.575 235.316C359.575 235.316 360.386 242.098 369.563 246.561C378.741 251.024 391.559 252.788 401.591 251.708C411.623 250.628 422.695 247.785 426.856 243.646C431.017 239.506 430.906 239.867 431.575 238.067C432.244 236.267 432.281 235.583 432.281 235.583L432.504 256.927C432.504 256.927 432.69 264.557 418.199 270.496C403.709 276.435 383.125 273.736 375.397 271.216C367.669 268.697 360.275 263.549 359.42 257.791L359.575 235.316Z" fill="url(#paint7_linear_20_216)"/>
<path d="M432.603 69.3483C452.794 69.3483 469.163 61.2194 469.163 51.1919C469.163 41.1644 452.794 33.0355 432.603 33.0355C412.411 33.0355 396.042 41.1644 396.042 51.1919C396.042 61.2194 412.411 69.3483 432.603 69.3483Z" fill="white"/>
<path d="M396.172 52.8239C396.172 52.8239 396.983 59.6052 406.16 64.0681C415.338 68.531 428.156 70.2951 438.188 69.2153C448.22 68.1357 459.292 65.2924 463.454 61.1532C467.615 57.0138 467.504 57.374 468.172 55.574C468.841 53.7743 468.878 53.0906 468.878 53.0906L469.101 74.4339C469.101 74.4339 469.287 82.0648 454.797 88.0037C440.306 93.942 419.722 91.2431 411.994 88.7236C404.266 86.204 396.872 81.0568 396.018 75.2983L396.172 52.8239Z" fill="url(#paint8_linear_20_216)"/>
<path d="M350.209 40.1695C370.4 40.1695 386.769 32.0406 386.769 22.0131C386.769 11.9856 370.4 3.85669 350.209 3.85669C330.017 3.85669 313.648 11.9856 313.648 22.0131C313.648 32.0406 330.017 40.1695 350.209 40.1695Z" fill="white"/>
<path d="M313.778 23.6448C313.778 23.6448 314.59 30.4261 323.767 34.889C332.944 39.3519 345.763 41.116 355.794 40.0362C365.827 38.9567 376.899 36.1133 381.06 31.9742C385.221 27.8347 385.11 28.1949 385.778 26.3949C386.447 24.5952 386.484 23.9115 386.484 23.9115L386.708 45.2549C386.708 45.2549 386.893 52.8857 372.403 58.8246C357.912 64.7629 337.329 62.0641 329.6 59.5445C321.872 57.0249 314.478 51.8777 313.624 46.1193L313.778 23.6448Z" fill="url(#paint9_linear_20_216)"/>
<path d="M295.412 79.4373C315.603 79.4373 331.972 71.3084 331.972 61.2809C331.972 51.2534 315.603 43.1245 295.412 43.1245C275.22 43.1245 258.852 51.2534 258.852 61.2809C258.852 71.3084 275.22 79.4373 295.412 79.4373Z" fill="white"/>
<path d="M258.981 62.9128C258.981 62.9128 259.792 69.6942 268.969 74.1571C278.147 78.62 290.965 80.3841 300.997 79.3042C311.029 78.2247 322.101 75.3814 326.263 71.2422C330.424 67.1028 330.313 67.463 330.981 65.663C331.65 63.8633 331.687 63.1796 331.687 63.1796L331.91 84.5229C331.91 84.5229 332.096 92.1538 317.606 98.0927C303.115 104.031 282.531 101.332 274.803 98.8126C267.075 96.293 259.681 91.1458 258.827 85.3873L258.981 62.9128Z" fill="url(#paint10_linear_20_216)"/>
<path d="M377.459 108.047C397.651 108.047 414.019 99.9185 414.019 89.891C414.019 79.8635 397.651 71.7346 377.459 71.7346C357.268 71.7346 340.899 79.8635 340.899 89.891C340.899 99.9185 357.268 108.047 377.459 108.047Z" fill="white"/>
<path d="M341.028 91.5232C341.028 91.5232 341.84 98.3045 351.017 102.767C360.194 107.23 373.013 108.994 383.044 107.915C393.077 106.835 404.149 103.992 408.31 99.8526C412.471 95.7131 412.36 96.0733 413.028 94.2733C413.697 92.4736 413.734 91.79 413.734 91.79L413.958 113.133C413.958 113.133 414.143 120.764 399.653 126.703C385.162 132.641 364.579 129.942 356.85 127.423C349.122 124.903 341.728 119.756 340.874 113.998L341.028 91.5232Z" fill="url(#paint11_linear_20_216)"/>
<path d="M340.961 290.268C361.152 290.268 377.521 282.139 377.521 272.112C377.521 262.084 361.152 253.956 340.961 253.956C320.769 253.956 304.4 262.084 304.4 272.112C304.4 282.139 320.769 290.268 340.961 290.268Z" fill="white"/>
<path d="M304.53 273.744C304.53 273.744 305.341 280.525 314.518 284.988C323.696 289.451 336.514 291.215 346.546 290.135C356.578 289.056 367.65 286.212 371.811 282.073C375.973 277.934 375.862 278.294 376.53 276.494C377.199 274.694 377.236 274.011 377.236 274.011L377.459 295.354C377.459 295.354 377.645 302.985 363.154 308.924C348.664 314.862 328.08 312.163 320.352 309.643C312.624 307.124 305.23 301.977 304.375 296.218L304.53 273.744Z" fill="url(#paint12_linear_20_216)"/>
<path d="M259.21 261.658C279.401 261.658 295.77 253.529 295.77 243.502C295.77 233.474 279.401 225.345 259.21 225.345C239.018 225.345 222.649 233.474 222.649 243.502C222.649 253.529 239.018 261.658 259.21 261.658Z" fill="white"/>
<path d="M222.779 245.133C222.779 245.133 223.591 252.083 232.768 256.657C241.945 261.231 254.764 263.039 264.795 261.932C274.828 260.826 285.9 257.912 290.061 253.669C294.222 249.427 294.111 249.796 294.779 247.951C295.448 246.107 295.485 245.406 295.485 245.406L295.709 267.281C295.709 267.281 295.894 275.101 281.404 281.188C266.913 287.274 246.33 284.508 238.601 281.926C230.873 279.344 223.479 274.069 222.625 268.167L222.779 245.133Z" fill="url(#paint13_linear_20_216)"/>
<path d="M72.4639 123.255C92.6214 123.255 108.962 115.151 108.962 105.154C108.962 95.1575 92.6214 87.0535 72.4639 87.0535C52.3063 87.0535 35.9653 95.1575 35.9653 105.154C35.9653 115.151 52.3063 123.255 72.4639 123.255Z" fill="white"/>
<path d="M36.0151 106.527C36.0151 106.527 36.9053 113.166 46.067 117.766C55.2288 122.365 68.0255 124.182 78.0403 123.07C88.0552 121.957 99.1086 119.027 103.263 114.761C107.417 110.496 107.306 110.866 107.974 109.012C108.641 107.157 108.678 106.453 108.678 106.453L108.901 128.448C108.901 128.448 109.086 136.312 94.6205 142.432C80.1546 148.552 59.6056 145.77 51.8905 143.174C44.1753 140.577 36.794 135.273 35.9409 129.338L36.0151 106.527Z" fill="url(#paint14_linear_20_216)"/>
<path d="M410.178 32.8639L383.813 23.4532" stroke="#FFC448" stroke-miterlimit="10" stroke-linecap="round" stroke-linejoin="round"/>
<path d="M242.247 93.4332L383.839 143.532L497.291 64.0564L465.906 52.8181" stroke="#FFC448" stroke-miterlimit="10" stroke-linecap="round" stroke-linejoin="round"/>
<path d="M461.386 259.16L497.439 234.383L497.291 64.0564" stroke="#FFC448" stroke-miterlimit="10" stroke-linecap="round" stroke-linejoin="round"/>
<path d="M187.647 270.585L347.588 326.816L461.238 246.994" stroke="#FFC448" stroke-miterlimit="10" stroke-linecap="round" stroke-linejoin="round"/>
<path d="M347.439 326.668L347.39 409.012" stroke="#FFC448" stroke-miterlimit="10" stroke-linecap="round" stroke-linejoin="round"/>
<path d="M255.896 64.5756L233.122 80.8219" stroke="#FFC448" stroke-miterlimit="10" stroke-linecap="round" stroke-linejoin="round"/>
<path d="M310.866 25.5549L290.783 39.8315" stroke="#FFC448" stroke-miterlimit="10" stroke-linecap="round" stroke-linejoin="round"/>
<path d="M373.163 215.448L347.811 206.391" stroke="#FFC448" stroke-miterlimit="10" stroke-linecap="round" stroke-linejoin="round"/>
<path d="M219.732 247.736L187.647 270.585L187.795 353.077L347.637 409.358L461.238 329.487V246.994L429.561 235.718" stroke="#FFC448" stroke-miterlimit="10" stroke-linecap="round" stroke-linejoin="round"/>
<path d="M187.647 339.427L160.866 358.196L1 301.371L1.14837 131.712L160.99 188.537L274.145 108.418L274.492 208.814L255.544 222.291" stroke="#FFC448" stroke-miterlimit="10" stroke-linecap="round" stroke-linejoin="round"/>
<path d="M32.9179 109.031L1.14844 131.712" stroke="#FFC448" stroke-miterlimit="10" stroke-linecap="round" stroke-linejoin="round"/>
<path d="M87.6965 69.8431L67.9448 83.9627" stroke="#FFC448" stroke-miterlimit="10" stroke-linecap="round" stroke-linejoin="round"/>
<path d="M160.966 188.71L160.941 358.085" stroke="#FFC448" stroke-miterlimit="10" stroke-linecap="round" stroke-linejoin="round"/>
<path d="M69.4475 120.387C89.5777 120.387 105.896 112.261 105.896 102.237C105.896 92.2123 89.5777 84.0861 69.4475 84.0861C49.3173 84.0861 32.9985 92.2123 32.9985 102.237C32.9985 112.261 49.3173 120.387 69.4475 120.387Z" stroke="#FFC448" stroke-miterlimit="10" stroke-linecap="round" stroke-linejoin="round"/>
<path d="M124.146 81.8113C144.276 81.8113 160.595 73.685 160.595 63.6608C160.595 53.6366 144.276 45.5104 124.146 45.5104C104.016 45.5104 87.6968 53.6366 87.6968 63.6608C87.6968 73.685 104.016 81.8113 124.146 81.8113Z" stroke="#FFC448" stroke-miterlimit="10" stroke-linecap="round" stroke-linejoin="round"/>
<path d="M205.834 110.891C225.753 110.891 241.9 102.765 241.9 92.7409C241.9 82.7167 225.753 74.5905 205.834 74.5905C185.916 74.5905 169.769 82.7167 169.769 92.7409C169.769 102.765 185.916 110.891 205.834 110.891Z" stroke="#FFC448" stroke-miterlimit="10" stroke-linecap="round" stroke-linejoin="round"/>
<path d="M292.494 76.2721C312.624 76.2721 328.943 68.1459 328.943 58.1216C328.943 48.0974 312.624 39.9712 292.494 39.9712C272.364 39.9712 256.045 48.0974 256.045 58.1216C256.045 68.1459 272.364 76.2721 292.494 76.2721Z" stroke="#FFC448" stroke-miterlimit="10" stroke-linecap="round" stroke-linejoin="round"/>
<path d="M347.291 37.3009C367.421 37.3009 383.74 29.1747 383.74 19.1504C383.74 9.12623 367.421 1 347.291 1C327.161 1 310.842 9.12623 310.842 19.1504C310.842 29.1747 327.161 37.3009 347.291 37.3009Z" stroke="#FFC448" stroke-miterlimit="10" stroke-linecap="round" stroke-linejoin="round"/>
<path d="M429.388 66.3811C449.518 66.3811 465.837 58.2549 465.837 48.2306C465.837 38.2064 449.518 30.0802 429.388 30.0802C409.258 30.0802 392.939 38.2064 392.939 48.2306C392.939 58.2549 409.258 66.3811 429.388 66.3811Z" stroke="#FFC448" stroke-miterlimit="10" stroke-linecap="round" stroke-linejoin="round"/>
<path d="M374.393 104.957C394.523 104.957 410.842 96.8304 410.842 86.8062C410.842 76.782 394.523 68.6558 374.393 68.6558C354.263 68.6558 337.944 76.782 337.944 86.8062C337.944 96.8304 354.263 104.957 374.393 104.957Z" stroke="#FFC448" stroke-miterlimit="10" stroke-linecap="round" stroke-linejoin="round"/>
<path d="M311.374 219.892C331.484 219.892 347.786 211.766 347.786 201.742C347.786 191.718 331.484 183.591 311.374 183.591C291.264 183.591 274.962 191.718 274.962 201.742C274.962 211.766 291.264 219.892 311.374 219.892Z" stroke="#FFC448" stroke-miterlimit="10" stroke-linecap="round" stroke-linejoin="round"/>
<path d="M256.137 258.666C276.305 258.666 292.655 250.54 292.655 240.515C292.655 230.491 276.305 222.365 256.137 222.365C235.969 222.365 219.62 230.491 219.62 240.515C219.62 250.54 235.969 258.666 256.137 258.666Z" stroke="#FFC448" stroke-miterlimit="10" stroke-linecap="round" stroke-linejoin="round"/>
<path d="M337.795 287.351C357.925 287.351 374.244 279.224 374.244 269.2C374.244 259.176 357.925 251.05 337.795 251.05C317.665 251.05 301.346 259.176 301.346 269.2C301.346 279.224 317.665 287.351 337.795 287.351Z" stroke="#FFC448" stroke-miterlimit="10" stroke-linecap="round" stroke-linejoin="round"/>
<path d="M393.05 248.973C413.215 248.973 429.561 240.847 429.561 230.822C429.561 220.798 413.215 212.672 393.05 212.672C372.886 212.672 356.539 220.798 356.539 230.822C356.539 240.847 372.886 248.973 393.05 248.973Z" stroke="#FFC448" stroke-miterlimit="10" stroke-linecap="round" stroke-linejoin="round"/>
<path d="M151.21 149.467C171.361 149.467 187.696 141.341 187.696 131.317C187.696 121.292 171.361 113.166 151.21 113.166C131.059 113.166 114.724 121.292 114.724 131.317C114.724 141.341 131.059 149.467 151.21 149.467Z" stroke="#FFC448" stroke-miterlimit="10" stroke-linecap="round" stroke-linejoin="round"/>
<path d="M242.121 96.8977L274.344 108.32" stroke="#FFC448" stroke-miterlimit="10" stroke-linecap="round" stroke-linejoin="round"/>
<path d="M160.681 67.9882L186.532 77.1929" stroke="#FFC448" stroke-miterlimit="10" stroke-linecap="round" stroke-linejoin="round"/>
<path d="M383.74 143.631V213.166" stroke="#FFC448" stroke-miterlimit="10" stroke-linecap="round" stroke-linejoin="round"/>
<path d="M32.998 102.583L32.9487 126.396" stroke="#FFC448" stroke-miterlimit="10" stroke-linecap="round" stroke-linejoin="round"/>
<path d="M105.921 101.816L105.872 125.679" stroke="#FFC448" stroke-miterlimit="10" stroke-linecap="round" stroke-linejoin="round"/>
<path d="M105.871 125.79C104.692 135.491 88.6399 143.215 69.2773 143.215C50.3414 143.215 34.7408 135.88 32.9609 126.482" stroke="#FFC448" stroke-miterlimit="10" stroke-linecap="round" stroke-linejoin="round"/>
<path d="M114.748 132.355L114.699 155.179" stroke="#FFC448" stroke-miterlimit="10" stroke-linecap="round" stroke-linejoin="round"/>
<path d="M187.672 130.921L187.623 154.462" stroke="#FFC448" stroke-miterlimit="10" stroke-linecap="round" stroke-linejoin="round"/>
<path d="M187.622 154.573C186.442 164.274 170.391 171.998 151.028 171.998C132.092 171.998 116.492 164.663 114.712 155.266" stroke="#FFC448" stroke-miterlimit="10" stroke-linecap="round" stroke-linejoin="round"/>
<path d="M301.297 269.645L301.247 292.865" stroke="#FFC448" stroke-miterlimit="10" stroke-linecap="round" stroke-linejoin="round"/>
<path d="M374.22 268.607L374.17 292.147" stroke="#FFC448" stroke-miterlimit="10" stroke-linecap="round" stroke-linejoin="round"/>
<path d="M374.17 292.259C372.99 301.96 356.939 309.684 337.576 309.684C318.64 309.684 303.04 302.349 301.26 292.951" stroke="#FFC448" stroke-miterlimit="10" stroke-linecap="round" stroke-linejoin="round"/>
<path d="M356.638 231.366L356.588 253.559" stroke="#FFC448" stroke-miterlimit="10" stroke-linecap="round" stroke-linejoin="round"/>
<path d="M429.561 230.328L429.511 253.868" stroke="#FFC448" stroke-miterlimit="10" stroke-linecap="round" stroke-linejoin="round"/>
<path d="M429.511 253.979C428.331 263.681 412.28 271.405 392.917 271.405C386.108 271.405 379.729 270.456 374.27 268.804" stroke="#FFC448" stroke-miterlimit="10" stroke-linecap="round" stroke-linejoin="round"/>
<path d="M219.744 241.9L219.694 265.12" stroke="#FFC448" stroke-miterlimit="10" stroke-linecap="round" stroke-linejoin="round"/>
<path d="M292.667 240.862L292.617 264.402" stroke="#FFC448" stroke-miterlimit="10" stroke-linecap="round" stroke-linejoin="round"/>
<path d="M292.617 264.514C291.438 274.215 275.386 281.939 256.024 281.939C237.088 281.939 221.487 274.604 219.707 265.206" stroke="#FFC448" stroke-miterlimit="10" stroke-linecap="round" stroke-linejoin="round"/>
<path d="M274.838 201.544L274.788 224.764" stroke="#FFC448" stroke-miterlimit="10" stroke-linecap="round" stroke-linejoin="round"/>
<path d="M347.761 200.506L347.711 224.046" stroke="#FFC448" stroke-miterlimit="10" stroke-linecap="round" stroke-linejoin="round"/>
<path d="M347.711 224.158C346.532 233.859 330.48 241.583 311.118 241.583C304.397 241.583 298.096 240.659 292.685 239.047" stroke="#FFC448" stroke-miterlimit="10" stroke-linecap="round" stroke-linejoin="round"/>
<path d="M337.894 87.4985L337.845 110.669" stroke="#FFC448" stroke-miterlimit="10" stroke-linecap="round" stroke-linejoin="round"/>
<path d="M410.965 86.4104L410.916 109.952" stroke="#FFC448" stroke-miterlimit="10" stroke-linecap="round" stroke-linejoin="round"/>
<path d="M410.916 110.063C409.734 119.764 393.65 127.488 374.248 127.488C355.273 127.488 339.641 120.153 337.857 110.755" stroke="#FFC448" stroke-miterlimit="10" stroke-linecap="round" stroke-linejoin="round"/>
<path d="M256.094 58.7152L256.045 81.8852" stroke="#FFC448" stroke-miterlimit="10" stroke-linecap="round" stroke-linejoin="round"/>
<path d="M328.968 57.6271L328.918 81.1683" stroke="#FFC448" stroke-miterlimit="10" stroke-linecap="round" stroke-linejoin="round"/>
<path d="M328.919 81.2795C327.74 90.9804 311.699 98.7045 292.349 98.7045C273.426 98.7045 257.836 91.3695 256.058 81.9718" stroke="#FFC448" stroke-miterlimit="10" stroke-linecap="round" stroke-linejoin="round"/>
<path d="M310.891 19.7439L310.842 42.4935" stroke="#FFC448" stroke-miterlimit="10" stroke-linecap="round" stroke-linejoin="round"/>
<path d="M383.764 18.6558L383.715 42.1967" stroke="#FFC448" stroke-miterlimit="10" stroke-linecap="round" stroke-linejoin="round"/>
<path d="M383.716 42.3081C382.536 52.009 366.496 59.733 347.146 59.733C340.535 59.733 334.331 58.8378 328.98 57.2722" stroke="#FFC448" stroke-miterlimit="10" stroke-linecap="round" stroke-linejoin="round"/>
<path d="M392.938 48.7745L392.889 71.1039" stroke="#FFC448" stroke-miterlimit="10" stroke-linecap="round" stroke-linejoin="round"/>
<path d="M465.812 47.6864L465.763 71.2276" stroke="#FFC448" stroke-miterlimit="10" stroke-linecap="round" stroke-linejoin="round"/>
<path d="M465.763 71.3389C464.583 81.0398 448.543 88.7638 429.194 88.7638C422.639 88.7638 416.484 87.8837 411.165 86.343" stroke="#FFC448" stroke-miterlimit="10" stroke-linecap="round" stroke-linejoin="round"/>
<path d="M87.6963 64.5015L87.6714 86.3611" stroke="#FFC448" stroke-miterlimit="10" stroke-linecap="round" stroke-linejoin="round"/>
<path d="M160.545 63.0674L160.496 86.6083" stroke="#FFC448" stroke-miterlimit="10" stroke-linecap="round" stroke-linejoin="round"/>
<path d="M160.496 86.7197C159.317 96.4206 143.282 104.145 123.939 104.145C117.41 104.145 111.277 103.271 105.973 101.74" stroke="#FFC448" stroke-miterlimit="10" stroke-linecap="round" stroke-linejoin="round"/>
<path d="M169.842 93.7546L169.793 115.54" stroke="#FFC448" stroke-miterlimit="10" stroke-linecap="round" stroke-linejoin="round"/>
<path d="M241.949 92.3206L241.9 115.862" stroke="#FFC448" stroke-miterlimit="10" stroke-linecap="round" stroke-linejoin="round"/>
<path d="M241.9 115.973C240.734 125.674 224.862 133.398 205.716 133.398C199.175 133.398 193.036 132.502 187.742 130.937" stroke="#FFC448" stroke-miterlimit="10" stroke-linecap="round" stroke-linejoin="round"/>
<defs>
<linearGradient id="paint0_linear_20_216" x1="10.1268" y1="311.721" x2="265.556" y2="97.3903" gradientUnits="userSpaceOnUse">
<stop stop-color="#6244C5"/>
<stop offset="0.0898" stop-color="#6844C5"/>
<stop offset="0.2147" stop-color="#7A44C5"/>
<stop offset="0.3597" stop-color="#9845C4"/>
<stop offset="0.4501" stop-color="#AE45C4"/>
<stop offset="0.7762" stop-color="#3D6CE2"/>
</linearGradient>
<linearGradient id="paint1_linear_20_216" x1="204.883" y1="380.732" x2="336.278" y2="304.871" gradientUnits="userSpaceOnUse">
<stop stop-color="#6244C5"/>
<stop offset="0.5718" stop-color="#AE45C4"/>
<stop offset="1" stop-color="#3D6CE2"/>
</linearGradient>
<linearGradient id="paint2_linear_20_216" x1="271.188" y1="196.769" x2="363.614" y2="119.214" gradientUnits="userSpaceOnUse">
<stop stop-color="#6244C5"/>
<stop offset="0.5718" stop-color="#AE45C4"/>
<stop offset="1" stop-color="#3D6CE2"/>
</linearGradient>
<linearGradient id="paint3_linear_20_216" x1="90.7378" y1="87.3138" x2="163.698" y2="87.3138" gradientUnits="userSpaceOnUse">
<stop stop-color="#6244C5"/>
<stop offset="1" stop-color="#AE45C4"/>
</linearGradient>
<linearGradient id="paint4_linear_20_216" x1="172.686" y1="116.715" x2="245.053" y2="116.715" gradientUnits="userSpaceOnUse">
<stop stop-color="#6244C5"/>
<stop offset="1" stop-color="#AE45C4"/>
</linearGradient>
<linearGradient id="paint5_linear_20_216" x1="117.58" y1="155.402" x2="190.837" y2="155.402" gradientUnits="userSpaceOnUse">
<stop stop-color="#6244C5"/>
<stop offset="1" stop-color="#AE45C4"/>
</linearGradient>
<linearGradient id="paint6_linear_20_216" x1="277.719" y1="225.365" x2="350.802" y2="225.365" gradientUnits="userSpaceOnUse">
<stop stop-color="#6244C5"/>
<stop offset="1" stop-color="#AE45C4"/>
</linearGradient>
<linearGradient id="paint7_linear_20_216" x1="359.42" y1="254.693" x2="432.504" y2="254.693" gradientUnits="userSpaceOnUse">
<stop stop-color="#6244C5"/>
<stop offset="1" stop-color="#AE45C4"/>
</linearGradient>
<linearGradient id="paint8_linear_20_216" x1="396.017" y1="72.2005" x2="469.101" y2="72.2005" gradientUnits="userSpaceOnUse">
<stop stop-color="#6244C5"/>
<stop offset="1" stop-color="#AE45C4"/>
</linearGradient>
<linearGradient id="paint9_linear_20_216" x1="313.624" y1="43.0214" x2="386.707" y2="43.0214" gradientUnits="userSpaceOnUse">
<stop stop-color="#6244C5"/>
<stop offset="1" stop-color="#AE45C4"/>
</linearGradient>
<linearGradient id="paint10_linear_20_216" x1="258.826" y1="82.2895" x2="331.91" y2="82.2895" gradientUnits="userSpaceOnUse">
<stop stop-color="#6244C5"/>
<stop offset="1" stop-color="#AE45C4"/>
</linearGradient>
<linearGradient id="paint11_linear_20_216" x1="340.874" y1="110.9" x2="413.957" y2="110.9" gradientUnits="userSpaceOnUse">
<stop stop-color="#6244C5"/>
<stop offset="1" stop-color="#AE45C4"/>
</linearGradient>
<linearGradient id="paint12_linear_20_216" x1="304.375" y1="293.12" x2="377.459" y2="293.12" gradientUnits="userSpaceOnUse">
<stop stop-color="#6244C5"/>
<stop offset="1" stop-color="#AE45C4"/>
</linearGradient>
<linearGradient id="paint13_linear_20_216" x1="222.625" y1="264.992" x2="295.709" y2="264.992" gradientUnits="userSpaceOnUse">
<stop stop-color="#6244C5"/>
<stop offset="1" stop-color="#AE45C4"/>
</linearGradient>
<linearGradient id="paint14_linear_20_216" x1="35.9409" y1="126.283" x2="108.901" y2="126.283" gradientUnits="userSpaceOnUse">
<stop stop-color="#6244C5"/>
<stop offset="1" stop-color="#AE45C4"/>
</linearGradient>
</defs>
</svg>
