<svg width="121" height="121" viewBox="0 0 121 121" fill="none" xmlns="http://www.w3.org/2000/svg">
<g clip-path="url(#clip0_54_65)">
<path d="M110.031 0H10.9689C4.9109 0 0 4.9109 0 10.9689V110.031C0 116.089 4.9109 121 10.9689 121H110.031C116.089 121 121 116.089 121 110.031V10.9689C121 4.9109 116.089 0 110.031 0Z" fill="#6244C5"/>
<path d="M40.4381 38.07C44.4605 38.07 47.83 34.9174 47.83 30.7854C47.83 26.6563 44.4605 23.5042 40.4381 23.5042C36.4158 23.5042 33.0472 26.6563 33.0472 30.7854C33.0472 34.9169 36.4158 38.07 40.4381 38.07ZM25.1118 77.0736C24.6774 78.9217 24.4595 80.9172 24.4595 82.5451C24.4595 88.9595 27.9378 93.2176 35.3297 93.2176C41.46 93.2176 46.43 89.5772 50.0085 83.6988L47.8234 92.468H59.9967L66.9542 64.5629C68.6935 57.4976 72.0631 53.8302 77.1725 53.8302C81.1944 53.8302 83.6942 56.3315 83.6942 60.4607C83.6942 61.657 83.5855 62.9601 83.1507 64.3738L79.5632 77.2003C79.0197 79.0483 78.8032 80.8974 78.8032 82.6353C78.8032 88.7246 82.3892 93.1784 89.8898 93.1784C96.3033 93.1784 101.412 89.0498 104.238 79.1575L99.4559 77.3113C97.0643 83.9384 94.9988 85.1366 93.3681 85.1366C91.7374 85.1366 90.8677 84.0505 90.8677 81.8777C90.8677 80.8993 91.0861 79.8136 91.4113 78.5062L94.8905 66.0101C95.7597 63.0759 96.0863 60.4739 96.0863 58.0832C96.0863 48.735 90.4334 43.8563 83.5855 43.8563C77.1725 43.8563 70.6499 49.6411 67.3895 55.7294L69.7802 44.8016H51.1934L48.5844 54.4267H57.2808L51.9256 75.8664C47.7204 85.2146 39.9957 85.3663 39.0263 85.1494C37.4344 84.7902 36.4163 84.1856 36.4163 82.1173C36.4163 80.9238 36.6337 79.2095 37.1773 77.1426L45.3306 44.8016H24.6774L22.0684 54.4267H30.6551L25.1123 77.0736" fill="white"/>
</g>
<defs>
<clipPath id="clip0_54_65">
<rect width="121" height="121" fill="white"/>
</clipPath>
</defs>
</svg>
