<svg width="125" height="130" viewBox="0 0 125 130" fill="none" xmlns="http://www.w3.org/2000/svg">
<path d="M123.503 61.0033L62.5 0L1.4967 61.0033C0.538314 61.9629 0 63.2636 0 64.6198C0 65.976 0.538314 67.2768 1.4967 68.2364L62.5 129.24L123.503 68.2364C124.462 67.2768 125 65.976 125 64.6198C125 63.2636 124.462 61.9629 123.503 61.0033ZM62.5 83.726L43.3938 64.6198L62.5 45.5137L81.6062 64.6198L62.5 83.726Z" fill="#6244C5"/>
<path d="M62.5 45.5137C56.4908 39.5038 53.1032 31.3605 53.0777 22.8618C53.0521 14.3631 56.3902 6.19954 62.3631 0.153622L20.5513 41.9484L43.3081 64.7052L62.5 45.5137Z" fill="#6244C5"/>
<path d="M81.6584 64.569L62.501 83.7263C65.4906 86.7142 67.8622 90.2618 69.4803 94.1665C71.0984 98.0712 71.9312 102.256 71.9312 106.483C71.9312 110.71 71.0984 114.895 69.4803 118.8C67.8622 122.705 65.4906 126.252 62.501 129.24L104.415 87.3258L81.6584 64.569Z" fill="#6244C5"/>
</svg>
