<svg width="131" height="131" viewBox="0 0 131 131" fill="none" xmlns="http://www.w3.org/2000/svg">
<path d="M131 0H0V130.863H131V0Z" fill="#6244C5"/>
<path d="M58.9747 60.0606L71.5095 60.0422V104.199C71.5095 104.199 71.8408 119.44 55.4406 120.71L50.4709 120.747C50.4709 120.747 39.6848 120.489 34.4941 109.666L44.581 103.297C44.581 103.297 47.2684 109.298 51.3546 109.666C55.4409 110.034 58.5332 108.304 59.0118 103.629L58.9747 60.0606Z" fill="white"/>
<path d="M107.733 75.4574L117.231 69.2452C117.231 69.2452 112.785 59.6647 101.548 59.5266C90.3111 59.3886 83.7493 63.1342 81.6509 73.8837C81.6509 73.8837 81.6509 77.2337 81.7614 79.0374C81.8718 80.8411 82.9762 89.0505 97.3332 94.6462C97.3332 94.6462 104.88 98.2169 104.99 98.2538C105.101 98.2907 109.555 100.794 108.009 105.617C106.463 110.439 95.7871 111.654 90.67 105.69L88.1299 102.23L77.896 108.156C77.896 108.156 82.5344 118.096 93.4679 120.158C104.401 122.219 117.544 120.452 120.746 106.316C120.746 106.316 123.397 94.3884 111.727 87.8356C100.058 81.2829 93.8785 81.6223 93.7992 75.2087C93.7254 69.2452 104.217 67.7543 107.733 75.4574Z" fill="white"/>
</svg>
