<svg width="55" height="55" viewBox="0 0 55 55" fill="none" xmlns="http://www.w3.org/2000/svg">
<path d="M46.9793 4.58325H8.021C7.10931 4.58325 6.23495 4.94541 5.59033 5.59008C4.94565 6.23471 4.5835 7.10907 4.5835 8.02075V46.9791C4.5835 47.8908 4.94565 48.7652 5.59033 49.4097C6.23495 50.0546 7.10931 50.4166 8.021 50.4166H46.9793C47.8911 50.4166 48.7654 50.0546 49.4099 49.4097C50.0549 48.7652 50.4168 47.8908 50.4168 46.9791V8.02075C50.4168 7.10907 50.0549 6.23471 49.4099 5.59008C48.7654 4.94541 47.8911 4.58325 46.9793 4.58325ZM18.3335 43.5416H11.4585V22.9166H18.3335V43.5416ZM14.896 18.9062C14.1081 18.8836 13.3443 18.6295 12.7 18.1753C12.0557 17.7212 11.5596 17.0872 11.2736 16.3527C10.9875 15.6182 10.9242 14.8157 11.0917 14.0455C11.2591 13.2752 11.6498 12.5714 12.215 12.0219C12.7802 11.4725 13.4947 11.1017 14.2694 10.9561C15.044 10.8104 15.8444 10.8962 16.5706 11.2028C17.2968 11.5094 17.9164 12.0232 18.3523 12.6801C18.7881 13.3369 19.0207 14.1075 19.021 14.8958C19.0029 15.9737 18.5589 17.0005 17.7859 17.752C17.013 18.5035 15.9739 18.9184 14.896 18.9062ZM43.5418 43.5416H36.6668V32.6791C36.6668 29.4249 35.2918 28.2561 33.5043 28.2561C32.9802 28.2911 32.4682 28.4291 31.9977 28.6625C31.5271 28.8958 31.1073 29.2199 30.7623 29.616C30.4173 30.012 30.154 30.4724 29.9875 30.9705C29.8209 31.4686 29.7545 31.9947 29.7918 32.5186C29.7805 32.6253 29.7805 32.7329 29.7918 32.8395V43.5416H22.9168V22.9166H29.5627V25.8958C30.2331 24.8759 31.154 24.0454 32.2374 23.4836C33.3209 22.9219 34.5304 22.6477 35.7502 22.6874C39.3023 22.6874 43.4502 24.6583 43.4502 31.0749L43.5418 43.5416Z" fill="#12141D"/>
</svg>
