<svg width="47" height="47" viewBox="0 0 47 47" fill="none" xmlns="http://www.w3.org/2000/svg">
<path fill-rule="evenodd" clip-rule="evenodd" d="M18.4645 17.5641H25.7377V21.187C26.7854 19.1034 29.4723 17.2312 33.5084 17.2312C41.2458 17.2312 43.0827 21.379 43.0827 28.989V43.0832H35.2493V30.7222C35.2493 26.3884 34.2016 23.9444 31.5344 23.9444C27.8351 23.9444 26.2978 26.5783 26.2978 30.7202V43.0832H18.4645V17.5641V17.5641ZM5.03227 42.7503H12.8656V17.2312H5.03227V42.7503V42.7503ZM13.9877 8.91025C13.988 9.56683 13.8578 10.2169 13.6046 10.8227C13.3515 11.4286 12.9805 11.978 12.5131 12.4392C11.566 13.3804 10.2841 13.9072 8.94893 13.904C7.61607 13.9031 6.33712 13.3776 5.38868 12.4411C4.92301 11.9784 4.55323 11.4283 4.30052 10.8224C4.04781 10.2165 3.91715 9.56674 3.91602 8.91025C3.91602 7.58446 4.44477 6.31546 5.39064 5.37938C6.33825 4.44165 7.61774 3.91592 8.95089 3.9165C10.2865 3.9165 11.5672 4.4433 12.5131 5.37938C13.457 6.31546 13.9877 7.58446 13.9877 8.91025Z" fill="#6244C5"/>
</svg>
