<svg width="910" height="434" viewBox="0 0 910 434" fill="none" xmlns="http://www.w3.org/2000/svg">
<path d="M209.799 0H406.227V218.076L209.799 0ZM1.91016 127.98H0C0 84.2591 11.8854 51.9987 35.6562 31.1992C59.4271 10.3997 96.0384 0 145.49 0L406.227 316.449C406.227 358.473 394.872 388.505 372.162 406.545C350.089 424.161 314.008 432.969 263.92 432.969L1.91016 127.98ZM0.955078 213.938L190.061 433.287H0.955078V213.938Z" fill="url(#paint0_linear_315_22)"/>
<path d="M701.664 0H725.223C788.258 0 835.375 15.1751 866.574 45.5254C895.227 73.3288 909.553 112.699 909.553 163.637C909.553 208.844 894.696 245.243 864.982 272.834C833.359 302.123 789.743 316.768 734.137 316.768H701.664V0ZM473.082 0H644.359V432.65H473.082V0Z" fill="url(#paint1_linear_315_22)"/>
<defs>
<linearGradient id="paint0_linear_315_22" x1="128" y1="36.5" x2="590" y2="395" gradientUnits="userSpaceOnUse">
<stop stop-color="#A745C4"/>
<stop offset="1" stop-color="#6744C5"/>
</linearGradient>
<linearGradient id="paint1_linear_315_22" x1="128" y1="36.5" x2="590" y2="395" gradientUnits="userSpaceOnUse">
<stop stop-color="#A745C4"/>
<stop offset="1" stop-color="#6744C5"/>
</linearGradient>
</defs>
</svg>
