<svg width="910" height="434" viewBox="0 0 910 434" fill="none" xmlns="http://www.w3.org/2000/svg">
<path d="M209.867 0.712891H406.295V218.789L209.867 0.712891ZM1.97852 128.693H0.0683594C0.0683594 84.972 11.9538 52.7116 35.7246 31.9121C59.4954 11.1126 96.1068 0.712891 145.559 0.712891L406.295 317.162C406.295 359.186 394.94 389.217 372.23 407.258C350.158 424.874 314.077 433.682 263.988 433.682L1.97852 128.693ZM1.02344 214.65L190.129 434H1.02344V214.65Z" fill="white"/>
<path d="M701.732 0.712891H725.291C788.326 0.712891 835.443 15.888 866.643 46.2383C895.295 74.0417 909.621 113.412 909.621 164.35C909.621 209.557 894.764 245.956 865.051 273.547C833.427 302.836 789.812 317.48 734.205 317.48H701.732V0.712891ZM473.15 0.712891H644.428V433.363H473.15V0.712891Z" fill="white"/>
</svg>
