<svg width="562" height="587" viewBox="0 0 562 587" fill="none" xmlns="http://www.w3.org/2000/svg">
<path d="M19.6401 383C6.60008 383 0.0800781 376.48 0.0800781 363.44C0.0800781 350.4 6.60008 343.88 19.6401 343.88C106.573 343.88 166.34 337.36 198.94 324.32C214.153 318.235 221.76 311.932 221.76 305.412C221.76 298.892 216.327 293.024 205.46 287.808C195.028 282.592 177.207 275.855 151.996 267.596C127.22 259.337 108.312 252.383 95.2721 246.732C31.8107 220.217 0.0800781 180.011 0.0800781 126.112C0.0800781 90.904 15.2934 61.3466 45.7201 37.44C76.1467 13.0986 112.659 0.927979 155.256 0.927979C178.728 0.927979 198.288 7.88265 213.936 21.792C230.019 35.7013 238.06 52.436 238.06 71.996C238.06 91.556 230.453 108.943 215.24 124.156C200.027 139.369 189.595 146.976 183.944 146.976C170.904 146.976 164.384 140.456 164.384 127.416C164.384 121.765 170.035 113.289 181.336 101.988C193.072 90.252 198.94 81.3413 198.94 75.256C198.94 64.824 194.811 56.348 186.552 49.828C178.728 43.308 168.513 40.048 155.908 40.048C123.743 40.048 96.1414 48.3066 73.1041 64.824C50.5014 80.9066 39.2001 100.467 39.2001 123.504C39.2001 146.541 45.5027 164.58 58.1081 177.62C71.1481 190.66 85.7094 200.657 101.792 207.612C118.309 214.132 134.827 220.217 151.344 225.868C167.861 231.084 181.553 235.865 192.42 240.212C203.721 244.124 215.023 249.123 226.324 255.208C249.361 267.813 260.88 284.331 260.88 304.76C260.88 331.275 241.755 351.052 203.504 364.092C165.688 376.697 104.4 383 19.6401 383Z" fill="white"/>
<path d="M378.546 586.424C366.81 586.424 360.29 579.904 358.986 566.864C356.812 544.261 348.554 491.667 334.21 409.08C320.3 326.928 313.346 276.941 313.346 259.12C313.346 226.085 328.776 199.353 359.638 178.924C390.499 158.495 425.055 148.28 463.306 148.28C491.994 148.28 515.466 156.539 533.722 173.056C551.978 189.573 561.106 211.741 561.106 239.56C561.106 256.077 556.324 271.291 546.762 285.2C537.634 299.109 526.55 309.976 513.51 317.8C485.691 335.187 462.436 343.88 443.746 343.88C430.706 343.88 424.186 337.36 424.186 324.32C424.186 312.584 430.706 306.281 443.746 305.412C457.22 304.108 473.52 297.153 492.646 284.548C512.206 271.943 521.986 257.164 521.986 240.212C521.986 222.825 516.77 209.785 506.338 201.092C495.906 191.964 479.388 187.4 456.786 187.4C434.618 187.4 411.58 193.92 387.674 206.96C364.202 220 352.466 236.517 352.466 256.512C352.466 276.507 361.594 339.533 379.85 445.592L387.022 402.56C389.195 389.52 395.715 383 406.582 383C419.622 383 426.142 389.52 426.142 402.56C426.142 404.733 425.924 407.124 425.49 409.732L400.062 566.864C399.627 570.776 397.671 574.905 394.194 579.252C390.716 584.033 385.5 586.424 378.546 586.424Z" fill="white"/>
</svg>
