<svg width="45" height="45" viewBox="0 0 45 45" fill="none" xmlns="http://www.w3.org/2000/svg">
<path d="M28.5892 30.2063L31.7392 27.0563C32.1635 26.6373 32.7003 26.3505 33.2844 26.2307C33.8685 26.1108 34.4749 26.1632 35.0299 26.3813L38.8689 27.9141C39.4297 28.1418 39.9106 28.5303 40.251 29.0308C40.5913 29.5313 40.7759 30.1214 40.7814 30.7266V37.7579C40.7782 38.1696 40.6916 38.5764 40.527 38.9538C40.3624 39.3312 40.1231 39.6713 39.8235 39.9538C39.524 40.2363 39.1703 40.4552 38.7839 40.5974C38.3976 40.7396 37.9864 40.8022 37.5752 40.7813C10.6736 39.1079 5.24549 16.3266 4.21892 7.60787C4.17127 7.17972 4.21481 6.74633 4.34668 6.33621C4.47855 5.9261 4.69576 5.54855 4.98402 5.2284C5.27228 4.90826 5.62506 4.65278 6.01914 4.47877C6.41323 4.30476 6.8397 4.21616 7.27049 4.21881H14.0627C14.6688 4.2206 15.2605 4.40368 15.7617 4.7445C16.2629 5.08533 16.6507 5.5683 16.8752 6.13131L18.408 9.97037C18.6333 10.5231 18.6908 11.13 18.5733 11.7153C18.4557 12.3005 18.1684 12.8381 17.747 13.261L14.597 16.411C14.597 16.411 16.4111 28.6876 28.5892 30.2063Z" fill="#6244C5"/>
</svg>
