<svg id="photog" xmlns="http://www.w3.org/2000/svg" xmlns:xlink="http://www.w3.org/1999/xlink" viewBox="0 0 500 500"><defs><style>.cls-1{fill:#3d6ce2;}.cls-2{fill:#6244c5;}.cls-3{fill:#e2e2e2;}.cls-4{fill:#232323;opacity:0.2;}.cls-5{fill:url(#linear-gradient);}.cls-6{fill:#12141d;}.cls-7{fill:url(#linear-gradient-2);}.cls-8,.cls-9{fill:none;stroke-linecap:round;stroke-linejoin:round;}.cls-8{stroke:#ffc448;stroke-width:2px;}.cls-9{stroke:#6244c5;stroke-width:10px;}</style><linearGradient id="linear-gradient" x1="281.1" y1="413.86" x2="281.1" y2="195.55" gradientUnits="userSpaceOnUse"><stop offset="0" stop-color="#6244c5"/><stop offset="0.57" stop-color="#ae45c4"/><stop offset="1" stop-color="#3d6ce2"/></linearGradient><linearGradient id="linear-gradient-2" x1="120.42" y1="220.86" x2="151.48" y2="220.86" xlink:href="#linear-gradient"/></defs><title>Artboard 2</title><g id="Layer_14" data-name="Layer 14"><path class="cls-1" d="M49.87,428,28,218.33S27.92,200,46.9,197.05l383-38.95s16.2,1.6,20.13,16.38L473.06,388s-1.84,12.79-14,15.71L68.15,444.84S54.7,443.15,49.87,428Z"/><polygon class="cls-2" points="55.54 195.65 55.53 188.67 56.91 186.54 83.94 184.5 85.98 186.77 86.67 193.31 55.54 196.17 55.54 195.65"/><polygon class="cls-2" points="102.84 191.36 163.72 185.17 161.83 171.24 102.14 177.91 102.84 191.36"/><path class="cls-2" d="M360.85,165.13l-.66-11.06s.74-4.15,4.17-4.46l44.12-3.76a5.6,5.6,0,0,1,4.1,4.31,60.11,60.11,0,0,1,.66,9.65Z"/><polygon class="cls-3" points="32.55 261.9 47.73 407.43 470.31 362.55 454.6 217.03 32.55 261.9"/><polygon class="cls-4" points="188.22 256.08 181.91 197.75 346.8 178.81 353.62 251.28 188.22 256.08"/><polygon class="cls-4" points="181.72 432.89 169.28 320.47 386.7 295.65 396.55 410.87 181.72 432.89"/><path class="cls-5" d="M388,217c-9.09-6.75-19-1.44-19-1.44l-15.36,10.53v0a108.85,108.85,0,1,0,19.88,25.92l15-10.63C392.95,239.35,397.12,223.78,388,217Z"/><circle class="cls-1" cx="276.14" cy="304.94" r="74.87"/><circle class="cls-2" cx="276.14" cy="304.94" r="52.41"/><circle class="cls-6" cx="276.14" cy="304.94" r="33.02"/><circle class="cls-1" cx="375.97" cy="231.08" r="10.61"/><circle class="cls-7" cx="135.95" cy="220.86" r="15.53"/><circle class="cls-1" cx="135.95" cy="220.86" r="6.21"/><polygon class="cls-1" points="184.88 184.18 190.87 133.32 323.25 119.09 341.81 168.96 184.88 184.18"/><polygon class="cls-2" points="207.54 180.72 212.94 155.45 308.77 145.84 321.22 169.16 207.54 180.72"/><circle class="cls-3" cx="285.31" cy="291.69" r="16.79"/></g><g id="Layer_15" data-name="Layer 15"><path class="cls-8" d="M50,196.74l379.91-38.64S445.79,159.24,450,174l23.11,214s-1.89,15.15-17.8,16.29L68.15,444.84s-14-2.27-18.18-15.91L28,218.33S28,197.88,50,196.74Z"/><polyline class="cls-8" points="185.24 182.98 190.87 133.29 323.25 119.09 340.71 167.17"/><path class="cls-8" d="M390.87,220.71a16.32,16.32,0,0,0-22.58-4.45L353.81,226a109.05,109.05,0,1,0,19.79,25.92l12.82-8.6A16.32,16.32,0,0,0,390.87,220.71Z"/><circle class="cls-8" cx="276.22" cy="305.2" r="74.62"/><circle class="cls-8" cx="276.22" cy="305.2" r="52.23"/><circle class="cls-8" cx="276.22" cy="305.2" r="32.91"/><circle class="cls-8" cx="375.97" cy="230.96" r="10.73"/><circle class="cls-8" cx="135.57" cy="220.86" r="15.53"/><circle class="cls-8" cx="135.57" cy="220.86" r="6.21"/><path class="cls-8" d="M360.85,165.13l-.66-11.06s-.25-4.29,5.05-4.55l42.8-3.66s3.91-.51,4.55,4.29l.66,9.65"/><path class="cls-8" d="M55.54,196.17v-6.63s-.27-2.65,1.62-2.78,26.64-2.15,26.64-2.15,1.77-.25,2.15,2.78.71,5.61.71,5.61"/><polyline class="cls-8" points="102.87 190.39 102.11 177.55 161.83 171.24 163.37 185.21"/><polyline class="cls-8" points="207.55 180.72 212.84 155.48 309.13 145.84 321.22 169.16"/><line class="cls-8" x1="392.62" y1="223.62" x2="454.6" y2="217.03"/><line class="cls-8" x1="32.55" y1="261.9" x2="185.74" y2="245.61"/><line class="cls-8" x1="362.36" y1="374.01" x2="470.07" y2="362.55"/><line class="cls-8" x1="48.02" y1="407.43" x2="209.52" y2="390.26"/></g><g id="Layer_13" data-name="Layer 13"><line class="cls-9" x1="129.81" y1="60.87" x2="141.12" y2="106.44"/><line class="cls-9" x1="72.16" y1="114.81" x2="116.39" y2="130.55"/><line class="cls-9" x1="205.69" y1="80.68" x2="175.01" y2="116.21"/></g></svg>