<svg width="121" height="119" viewBox="0 0 121 119" fill="none" xmlns="http://www.w3.org/2000/svg">
<g clip-path="url(#clip0_54_16)">
<path d="M99.5729 0H21.4271C9.59323 0 0 9.67658 0 21.6132V97.3867C0 109.323 9.59323 119 21.4271 119H99.5729C111.407 119 121 109.323 121 97.3867V21.6132C121 9.67658 111.407 0 99.5729 0Z" fill="#6244C5"/>
<path d="M27.2461 83.4501V31.1313C27.2461 30.7501 27.4086 30.5582 27.7333 30.5582C28.5981 30.5582 29.3877 30.5454 30.5787 30.5172C31.7685 30.4904 33.0537 30.4631 34.4343 30.4354C35.8144 30.4085 37.2755 30.3812 38.8177 30.3535C40.3598 30.3267 41.8884 30.313 43.4037 30.3125C47.5156 30.3125 50.9789 30.8311 53.7935 31.8682C56.3325 32.7345 58.648 34.161 60.5715 36.0438C62.2019 37.6759 63.4619 39.6453 64.2646 41.8161C65.024 43.9288 65.4087 46.1599 65.4012 48.4071C65.4012 52.7747 64.4001 56.3773 62.3979 59.2148C60.3824 62.064 57.5494 64.2215 54.2807 65.3964C50.8715 66.6796 47.0831 67.1148 42.9168 67.1148C41.7258 67.1148 40.887 67.1011 40.4004 67.0738C39.9135 67.0468 39.183 67.0332 38.209 67.0328V83.3683C38.2231 83.4684 38.214 83.5704 38.1823 83.6664C38.1506 83.7623 38.0971 83.8495 38.0262 83.9209C37.9554 83.9924 37.8689 84.0463 37.7738 84.0783C37.6787 84.1103 37.5776 84.1195 37.4783 84.1052H27.8143C27.4352 84.1052 27.2461 83.8876 27.2461 83.4501ZM38.2089 40.3833V57.4475C38.9115 57.5026 39.5608 57.5298 40.1569 57.5294H42.8355C44.8064 57.5228 46.7644 57.2075 48.6394 56.5948C50.2475 56.113 51.6844 55.1752 52.7791 53.8929C53.8342 52.6379 54.3618 50.8913 54.362 48.6529C54.4047 47.0691 53.9962 45.5061 53.1847 44.1496C52.3317 42.8379 51.0989 41.823 49.6538 41.243C47.7671 40.5033 45.7517 40.1552 43.7284 40.2196C42.4296 40.2196 41.2797 40.2332 40.2788 40.2605C39.2768 40.2887 38.5869 40.3296 38.2089 40.3833V40.3833Z" fill="white"/>
<path d="M96.7857 54.3449C95.2602 53.5542 93.6355 52.9758 91.956 52.6254C90.1054 52.1971 88.2133 51.9774 86.3146 51.9703C85.2876 51.9423 84.262 52.0664 83.2707 52.3388C82.6397 52.4806 82.0789 52.8432 81.6878 53.3623C81.4233 53.7775 81.2824 54.2606 81.2821 54.7542C81.2969 55.233 81.4681 55.6936 81.769 56.0642C82.2432 56.6236 82.8225 57.0828 83.4735 57.4151C84.6309 58.0438 85.8234 58.6042 87.0451 59.0936C89.7693 60.0134 92.3724 61.2644 94.7969 62.8189C96.4485 63.8704 97.8153 65.3194 98.7743 67.0356C99.5808 68.6606 99.9846 70.4587 99.9513 72.2757C99.9999 74.675 99.3202 77.0319 98.0033 79.0305C96.5934 81.0592 94.6351 82.6365 92.3617 83.5745C89.8987 84.6658 86.8549 85.2117 83.2301 85.2121C80.9274 85.2356 78.6286 85.016 76.3712 84.5571C74.5926 84.2281 72.8612 83.6781 71.2168 82.9195C71.0393 82.8271 70.8916 82.6856 70.791 82.5116C70.6904 82.3376 70.641 82.1383 70.6486 81.937V73.0944C70.6388 73.0078 70.6525 72.9202 70.6883 72.8409C70.7241 72.7616 70.7805 72.6935 70.8517 72.6441C70.9214 72.6043 71.0014 72.587 71.0812 72.5943C71.1609 72.6016 71.2365 72.6333 71.298 72.6851C73.24 73.8401 75.3487 74.6826 77.5481 75.1822C79.4867 75.6724 81.4752 75.9334 83.4736 75.9601C85.3671 75.9601 86.7606 75.7144 87.6539 75.2232C88.0572 75.0369 88.3985 74.7367 88.6362 74.3589C88.8739 73.9811 88.998 73.5419 88.9933 73.0944C88.9933 72.3857 88.5874 71.7034 87.7757 71.0476C86.9641 70.3925 85.3136 69.601 82.8242 68.6731C80.2755 67.7783 77.8589 66.5388 75.6405 64.9887C74.0539 63.8756 72.7474 62.4035 71.8256 60.6901C71.0273 59.0768 70.6237 57.294 70.6486 55.4911C70.6441 53.3247 71.234 51.1994 72.3531 49.3504C73.6291 47.3142 75.4614 45.6935 77.6294 44.6834C80.0099 43.4834 82.9862 42.883 86.5582 42.8821C88.6501 42.8652 90.74 43.0158 92.8083 43.3325C94.3061 43.5241 95.7703 43.9236 97.1596 44.5197C97.2698 44.5516 97.3711 44.6088 97.4556 44.687C97.5401 44.7651 97.6055 44.862 97.6466 44.97C97.7014 45.1699 97.7288 45.3766 97.7278 45.5841V53.8535C97.7334 53.9498 97.7139 54.0458 97.6712 54.132C97.6284 54.2182 97.564 54.2916 97.4843 54.3448C97.3758 54.3993 97.2562 54.4276 97.135 54.4276C97.0138 54.4276 96.8942 54.3993 96.7857 54.3449V54.3449Z" fill="white"/>
</g>
<defs>
<clipPath id="clip0_54_16">
<rect width="121" height="119" fill="white"/>
</clipPath>
</defs>
</svg>
