<svg width="127" height="125" viewBox="0 0 127 125" fill="none" xmlns="http://www.w3.org/2000/svg">
<path fill-rule="evenodd" clip-rule="evenodd" d="M111.924 0H15.097C6.76723 0 0.0114724 6.64467 0.000121708 14.8485V110.071C-0.0159862 114.025 1.56739 117.822 4.40035 120.624C7.23327 123.425 11.0825 125 15.097 125H111.924C115.934 124.995 119.778 123.417 122.607 120.617C125.436 117.816 127.016 114.021 127 110.071V14.8485C126.989 6.65248 120.245 0.0110382 111.924 0ZM54.7716 90.0329C54.7663 91.3543 54.2267 92.6194 53.2723 93.548C52.3178 94.4767 51.0267 94.9931 49.6853 94.9825H28.5253C25.7578 94.9712 23.5202 92.7586 23.5202 90.0329V28.0137C23.5202 25.288 25.7578 23.0753 28.5253 23.0642H49.6853C52.4561 23.0753 54.6994 25.2848 54.7108 28.0137L54.7716 90.0329ZM103.602 61.5582C103.602 62.8814 103.064 64.1495 102.108 65.0793C101.153 66.0094 99.859 66.5236 98.5154 66.5081H77.3555C74.5847 66.4968 72.3414 64.2872 72.3301 61.5582V28.0137C72.3414 25.2848 74.5847 23.0753 77.3555 23.0642H98.5154C101.283 23.0753 103.521 25.288 103.52 28.0137L103.602 61.5582Z" fill="#6244C5"/>
</svg>
