<svg xmlns="http://www.w3.org/2000/svg" xmlns:xlink="http://www.w3.org/1999/xlink" viewBox="0 0 500 500"><defs><style>.cls-1{fill:#6244c5;}.cls-2{fill:#fff;}.cls-11,.cls-3{fill:none;stroke-linecap:round;stroke-linejoin:round;}.cls-3{stroke:#ffc448;stroke-width:2px;}.cls-4{fill:#e2e2e2;}.cls-5{fill:url(#linear-gradient);}.cls-6{fill:#3d6ce2;}.cls-7{fill:#ae45c4;}.cls-8{fill:#12141d;}.cls-9{fill:#232323;opacity:0.2;}.cls-10{fill:url(#linear-gradient-2);}.cls-11{stroke:#fff;stroke-width:5px;}</style><linearGradient id="linear-gradient" x1="67.53" y1="390.64" x2="67.53" y2="120.79" gradientTransform="translate(21.34 19.32)" gradientUnits="userSpaceOnUse"><stop offset="0" stop-color="#6244c5"/><stop offset="0.57" stop-color="#ae45c4"/><stop offset="1" stop-color="#3d6ce2"/></linearGradient><linearGradient id="linear-gradient-2" x1="370.42" y1="442" x2="451.02" y2="345.94" gradientTransform="matrix(1, 0, 0, 1, 0, 0)" xlink:href="#linear-gradient"/></defs><title>Artboard 2 copy</title><g id="web"><g id="Layer_22_copy" data-name="Layer 22 copy"><rect class="cls-1" x="76.15" y="73.02" width="89.41" height="65.07" rx="12" ry="12"/><g id="Layer_38_copy" data-name="Layer 38 copy"><path class="cls-2" d="M96.58,101.95a8,8,0,0,1,3.1-3.2,9,9,0,0,1,4.54-1.14,8.74,8.74,0,0,1,5.46,1.65,8,8,0,0,1,2.9,4.62h-4.83a3.53,3.53,0,0,0-1.3-1.81,3.76,3.76,0,0,0-2.26-.66,3.69,3.69,0,0,0-3,1.39,7.48,7.48,0,0,0,0,7.87,3.69,3.69,0,0,0,3,1.39,3.4,3.4,0,0,0,3.55-2.43h4.83a8.18,8.18,0,0,1-2.91,4.58,8.58,8.58,0,0,1-5.44,1.7,9,9,0,0,1-4.54-1.14,8,8,0,0,1-3.1-3.2,10.91,10.91,0,0,1,0-9.63Z"/><path class="cls-2" d="M118.75,115.13A6.9,6.9,0,0,1,116,113a5.39,5.39,0,0,1-1.1-3h4.51a2.46,2.46,0,0,0,1,1.7,3.51,3.51,0,0,0,2.19.67,3.4,3.4,0,0,0,2-.51,1.55,1.55,0,0,0,.72-1.31,1.38,1.38,0,0,0-.88-1.3,16.55,16.55,0,0,0-2.8-.94,23.68,23.68,0,0,1-3.25-1,5.63,5.63,0,0,1-2.18-1.57,4.21,4.21,0,0,1-.91-2.85,4.6,4.6,0,0,1,.85-2.69,5.7,5.7,0,0,1,2.43-1.92,9.12,9.12,0,0,1,3.73-.7,7.61,7.61,0,0,1,5.06,1.58,5.87,5.87,0,0,1,2.08,4.27h-4.29a2.32,2.32,0,0,0-.88-1.68,3.27,3.27,0,0,0-2.1-.62,3.31,3.31,0,0,0-1.87.45,1.43,1.43,0,0,0-.66,1.25,1.47,1.47,0,0,0,.9,1.36,13.88,13.88,0,0,0,2.78.94,23.72,23.72,0,0,1,3.17,1,5.61,5.61,0,0,1,2.16,1.58,4.36,4.36,0,0,1,.94,2.83,4.7,4.7,0,0,1-.85,2.75,5.58,5.58,0,0,1-2.43,1.9,9.22,9.22,0,0,1-3.7.69A9.35,9.35,0,0,1,118.75,115.13Z"/><path class="cls-2" d="M136.19,115.13a6.9,6.9,0,0,1-2.74-2.13,5.39,5.39,0,0,1-1.1-3h4.51a2.46,2.46,0,0,0,1,1.7,3.51,3.51,0,0,0,2.19.67,3.4,3.4,0,0,0,2-.51,1.55,1.55,0,0,0,.72-1.31,1.38,1.38,0,0,0-.88-1.3,16.55,16.55,0,0,0-2.8-.94,23.68,23.68,0,0,1-3.25-1,5.63,5.63,0,0,1-2.18-1.57,4.21,4.21,0,0,1-.91-2.85,4.6,4.6,0,0,1,.85-2.69,5.7,5.7,0,0,1,2.43-1.92,9.12,9.12,0,0,1,3.73-.7,7.61,7.61,0,0,1,5.06,1.58,5.87,5.87,0,0,1,2.08,4.27h-4.29a2.32,2.32,0,0,0-.88-1.68,3.27,3.27,0,0,0-2.1-.62,3.31,3.31,0,0,0-1.87.45,1.43,1.43,0,0,0-.66,1.25,1.47,1.47,0,0,0,.9,1.36,13.88,13.88,0,0,0,2.78.94,23.72,23.72,0,0,1,3.17,1,5.61,5.61,0,0,1,2.16,1.58,4.36,4.36,0,0,1,.94,2.83,4.7,4.7,0,0,1-.85,2.75,5.58,5.58,0,0,1-2.43,1.9,9.22,9.22,0,0,1-3.7.69A9.35,9.35,0,0,1,136.19,115.13Z"/></g><rect class="cls-3" x="76.15" y="73.02" width="89.41" height="65.07" rx="12" ry="12"/></g><g id="Layer_34" data-name="Layer 34"><rect class="cls-4" x="33.55" y="115.29" width="434.6" height="269.42" transform="translate(-35.52 41.64) rotate(-8.86)"/><rect class="cls-5" x="35.47" y="140.11" width="106.79" height="269.86" transform="translate(-41.32 16.98) rotate(-8.86)"/><rect class="cls-6" x="14.78" y="116.75" width="434.48" height="24.38" transform="translate(-17.1 37.29) rotate(-8.86)"/><rect class="cls-1" x="165.71" y="162.73" width="75.68" height="75.68" transform="translate(-28.47 33.76) rotate(-8.86)"/><rect class="cls-1" x="183.62" y="277.59" width="75.68" height="75.68" transform="translate(-45.96 37.89) rotate(-8.86)"/><rect class="cls-7" x="244.46" y="159.8" width="56.39" height="12.54" transform="translate(-22.33 43.99) rotate(-8.86)"/><rect class="cls-7" x="246.87" y="174.56" width="76.13" height="12.3" transform="matrix(0.99, -0.15, 0.15, 0.99, -24.44, 46.06)"/><rect class="cls-7" x="365.89" y="191.12" width="38.07" height="5.17" transform="translate(-25.25 61.62) rotate(-8.86)"/><rect class="cls-7" x="261.92" y="277.08" width="56.39" height="12.54" transform="translate(-40.19 48.09) rotate(-8.86)"/><rect class="cls-7" x="264.32" y="291.85" width="76.13" height="12.3" transform="translate(-42.31 50.15) rotate(-8.86)"/><rect class="cls-7" x="383.13" y="307.03" width="38.07" height="5.17" transform="translate(-42.9 65.66) rotate(-8.86)"/><circle class="cls-8" cx="42.52" cy="197.28" r="6.01" transform="translate(-29.89 8.91) rotate(-8.86)"/><rect class="cls-4" x="55.02" y="188.95" width="53.98" height="4.35" transform="matrix(0.99, -0.15, 0.15, 0.99, -28.47, 14.92)"/><circle class="cls-8" cx="46.56" cy="222.03" r="6.01" transform="translate(-33.65 9.83) rotate(-8.86)"/><rect class="cls-4" x="59.05" y="213.7" width="53.98" height="4.35" transform="translate(-32.23 15.84) rotate(-8.86)"/><circle class="cls-8" cx="50.32" cy="246.12" r="6.01" transform="translate(-37.32 10.69) rotate(-8.86)"/><rect class="cls-4" x="62.81" y="237.78" width="53.98" height="4.35" transform="matrix(0.99, -0.15, 0.15, 0.99, -35.9, 16.7)"/><circle class="cls-8" cx="53.84" cy="270.94" r="6.01" transform="translate(-41.1 11.53) rotate(-8.86)"/><rect class="cls-4" x="66.33" y="262.61" width="53.98" height="4.35" transform="translate(-39.68 17.54) rotate(-8.86)"/><circle class="cls-8" cx="57.94" cy="294.97" r="6.01" transform="translate(-44.76 12.45) rotate(-8.86)"/><rect class="cls-4" x="70.43" y="286.64" width="53.98" height="4.35" transform="translate(-43.34 18.46) rotate(-8.86)"/><circle class="cls-8" cx="61.8" cy="319.75" r="6.01" transform="translate(-48.53 13.34) rotate(-8.86)"/><rect class="cls-4" x="74.29" y="311.41" width="53.98" height="4.35" transform="translate(-47.11 19.35) rotate(-8.86)"/><rect class="cls-9" x="362.09" y="97.37" width="74.75" height="11.49" rx="5.36" ry="5.36" transform="translate(-11.12 62.78) rotate(-8.86)"/></g><g id="Layer_30" data-name="Layer 30"><polygon class="cls-3" points="15.3 149.81 444.88 83.99 486.31 349.62 56.9 416.58 15.3 149.81"/><line class="cls-3" x1="19.12" y1="174.35" x2="448.6" y2="107.85"/><line class="cls-3" x1="120.4" y1="133.71" x2="162.87" y2="400.06"/><line class="cls-3" x1="23.36" y1="155.54" x2="36.1" y2="153.61"/><line class="cls-3" x1="23.89" y1="158.98" x2="36.63" y2="157.05"/><line class="cls-3" x1="24.43" y1="162.42" x2="37.17" y2="160.49"/><rect class="cls-3" x="164.69" y="149.68" width="246.55" height="75.57" transform="matrix(0.99, -0.15, 0.15, 0.99, -25.45, 46.61)"/><line class="cls-3" x1="235.35" y1="157.43" x2="246.82" y2="232.12"/><rect class="cls-3" x="173.06" y="170.45" width="61.81" height="60.77" transform="translate(-28.51 33.83) rotate(-8.86)"/><line class="cls-3" x1="168.75" y1="175.57" x2="239.19" y2="226.09"/><line class="cls-3" x1="229.82" y1="166.05" x2="178.11" y2="235.61"/><rect class="cls-3" x="182.62" y="264.6" width="246.55" height="75.57" transform="translate(-42.94 50.74) rotate(-8.86)"/><line class="cls-3" x1="253.27" y1="272.35" x2="264.75" y2="347.04"/><rect class="cls-3" x="190.98" y="285.37" width="61.81" height="60.77" transform="translate(-46 37.96) rotate(-8.86)"/><line class="cls-3" x1="186.67" y1="290.49" x2="257.11" y2="341.01"/><line class="cls-3" x1="247.75" y1="280.97" x2="196.03" y2="350.53"/><circle class="cls-3" cx="42.7" cy="197.26" r="6.01" transform="translate(-29.88 8.93) rotate(-8.86)"/><rect class="cls-3" x="54.85" y="188.96" width="54.15" height="4.35" transform="matrix(0.99, -0.15, 0.15, 0.99, -28.47, 14.91)"/><circle class="cls-3" cx="46.56" cy="222.03" r="6.01" transform="translate(-33.65 9.83) rotate(-8.86)"/><rect class="cls-3" x="58.71" y="213.74" width="54.15" height="4.35" transform="matrix(0.99, -0.15, 0.15, 0.99, -32.24, 15.8)"/><circle class="cls-3" cx="50.32" cy="246.12" r="6.01" transform="translate(-37.32 10.69) rotate(-8.86)"/><rect class="cls-3" x="62.47" y="237.82" width="54.15" height="4.35" transform="matrix(0.99, -0.15, 0.15, 0.99, -35.91, 16.66)"/><circle class="cls-3" cx="54.18" cy="270.89" r="6.01" transform="translate(-41.09 11.58) rotate(-8.86)"/><rect class="cls-3" x="66.33" y="262.6" width="54.15" height="4.35" transform="translate(-39.68 17.55) rotate(-8.86)"/><circle class="cls-3" cx="57.94" cy="294.97" r="6.01" transform="translate(-44.76 12.45) rotate(-8.86)"/><rect class="cls-3" x="70.08" y="286.68" width="54.15" height="4.35" transform="translate(-43.35 18.42) rotate(-8.86)"/><circle class="cls-3" cx="61.8" cy="319.75" r="6.01" transform="translate(-48.53 13.34) rotate(-8.86)"/><rect class="cls-3" x="73.95" y="311.45" width="54.15" height="4.35" transform="matrix(0.99, -0.15, 0.15, 0.99, -47.12, 19.31)"/><rect class="cls-3" x="362.32" y="97.35" width="74.52" height="11.49" rx="5.36" ry="5.36" transform="translate(-11.11 62.8) rotate(-8.86)"/></g><g id="Layer_22" data-name="Layer 22"><rect class="cls-10" x="354.39" y="352.97" width="112.67" height="82" rx="12" ry="12"/><g id="Layer_38" data-name="Layer 38"><line class="cls-11" x1="426.06" y1="378.89" x2="447.39" y2="393.43"/><line class="cls-11" x1="447.39" y1="393.85" x2="426.06" y2="408.39"/><line class="cls-11" x1="393.96" y1="378.89" x2="372.64" y2="393.43"/><line class="cls-11" x1="372.64" y1="393.85" x2="393.96" y2="408.39"/><line class="cls-11" x1="418.64" y1="364.64" x2="401.46" y2="422.64"/></g><rect class="cls-3" x="354.39" y="352.97" width="112.67" height="82" rx="12" ry="12"/></g></g></svg>