<svg width="140" height="140" viewBox="0 0 140 140" fill="none" xmlns="http://www.w3.org/2000/svg">
<path d="M68.0266 4.61763C80.7164 4.61763 93.069 8.39766 103.531 15.4852C113.724 22.3702 121.756 32.0901 126.549 43.4301C134.919 63.2075 132.691 85.82 120.676 103.573C113.791 113.765 104.071 121.797 92.731 126.59C72.9539 134.96 50.3412 132.732 32.5888 120.718C22.3963 113.832 14.3638 104.112 9.57135 92.7725C1.20137 72.9947 3.42886 50.3825 15.4439 32.6302C22.3289 22.4376 32.0489 14.4052 43.3888 9.61266C51.1512 6.30515 59.5887 4.61763 68.0266 4.61763ZM68.0266 0.567627C30.7663 0.567627 0.526367 30.8076 0.526367 68.0673C0.526367 105.328 30.7663 135.568 68.0266 135.568C105.286 135.568 135.526 105.328 135.526 68.0673C135.526 30.8076 105.286 0.567627 68.0266 0.567627Z" fill="#6244C5"/>
<path d="M11.8008 68.0667C11.8008 89.5987 24.0858 109.309 43.5258 118.691L16.6608 45.1842C13.4208 52.4065 11.8008 60.169 11.8008 68.0667ZM106.031 65.2315C106.031 58.279 103.533 53.4865 101.373 49.7067C99.2133 45.9267 95.8384 41.1342 95.8384 36.5442C95.8384 31.9542 99.7531 26.5542 105.288 26.5542H106.031C83.1485 5.5617 47.5758 7.11422 26.5833 30.0642C24.5583 32.2917 22.6683 34.6542 21.0483 37.1517H24.6933C30.5658 37.1517 39.6783 36.4092 39.6783 36.4092C42.7158 36.2067 43.0533 40.6617 40.0158 41.0667C40.0158 41.0667 36.9783 41.4042 33.6033 41.6067L54.0557 102.559L66.3407 65.6366L57.5657 41.6067C54.5283 41.4042 51.6932 41.0667 51.6932 41.0667C48.6558 40.8642 48.9933 36.2742 52.0307 36.4092C52.0307 36.4092 61.3457 37.1517 66.8134 37.1517C72.2806 37.1517 81.798 36.4092 81.798 36.4092C84.8357 36.2067 85.173 40.6617 82.1359 41.0667C82.1359 41.0667 79.0983 41.4042 75.7233 41.6067L96.0409 102.087L101.846 83.7265C104.411 75.6938 105.963 70.0241 105.963 65.1638L106.031 65.2315ZM68.9733 72.9263L52.0983 121.999C63.4383 125.307 75.5208 125.036 86.6583 121.121L86.2532 120.379L68.9733 72.9263ZM117.371 41.0667C117.641 42.9567 117.776 44.9142 117.776 46.8717C117.776 52.609 116.696 59.0215 113.523 66.9864L96.3104 116.666C122.636 101.344 132.018 67.7965 117.371 41.0667Z" fill="#6244C5"/>
</svg>
